0
SECTION
2
ENTITIES
0
3DFACE
8
0
10
-400.0
20
-300.0
30
-519.61523
11
200.0
21
-300.0
31
-519.61523
12
200.0
22
100.0
32
-519.61523
13
200.0001
23
100.0001
33
-519.6151
0
3DFACE
8
0
10
200.0
20
100.0
30
-519.61523
11
-400.0
21
100.0
31
-519.61523
12
-400.0
22
-300.0
32
-519.61523
13
-399.9999
23
-299.9999
33
-519.6151
0
3DFACE
8
0
10
-400.0
20
-300.0
30
-119.615234
11
200.0
21
-300.0
31
-119.615234
12
200.0
22
100.0
32
-119.615234
13
200.0001
23
100.0001
33
-119.615135
0
3DFACE
8
0
10
200.0
20
100.0
30
-119.615234
11
-400.0
21
100.0
31
-119.615234
12
-400.0
22
-300.0
32
-119.615234
13
-399.9999
23
-299.9999
33
-119.615135
0
3DFACE
8
0
10
-400.0
20
-300.0
30
-519.61523
11
-400.0
21
-300.0
31
-119.615234
12
-400.0
22
100.0
32
-119.615234
13
-399.9999
23
100.0001
33
-119.615135
0
3DFACE
8
0
10
-400.0
20
100.0
30
-119.615234
11
-400.0
21
100.0
31
-519.61523
12
-400.0
22
-300.0
32
-519.61523
13
-399.9999
23
-299.9999
33
-519.6151
0
3DFACE
8
0
10
200.0
20
-300.0
30
-519.61523
11
200.0
21
100.0
31
-519.61523
12
200.0
22
100.0
32
-119.615234
13
200.0001
23
100.0001
33
-119.615135
0
3DFACE
8
0
10
200.0
20
100.0
30
-119.615234
11
200.0
21
-300.0
31
-119.615234
12
200.0
22
-300.0
32
-519.61523
13
200.0001
23
-299.9999
33
-519.6151
0
3DFACE
8
0
10
-400.0
20
-300.0
30
-519.61523
11
200.0
21
-300.0
31
-519.61523
12
200.0
22
-300.0
32
-119.615234
13
200.0001
23
-299.9999
33
-119.615135
0
3DFACE
8
0
10
200.0
20
-300.0
30
-119.615234
11
-400.0
21
-300.0
31
-119.615234
12
-400.0
22
-300.0
32
-519.61523
13
-399.9999
23
-299.9999
33
-519.6151
0
3DFACE
8
0
10
-400.0
20
100.0
30
-519.61523
11
200.0
21
100.0
31
-519.61523
12
200.0
22
100.0
32
-119.615234
13
200.0001
23
100.0001
33
-119.615135
0
3DFACE
8
0
10
200.0
20
100.0
30
-119.615234
11
-400.0
21
100.0
31
-119.615234
12
-400.0
22
100.0
32
-519.61523
13
-399.9999
23
100.0001
33
-519.6151
0
3DFACE
8
0
10
200.0
20
-300.0
30
-519.61523
11
800.0
21
-300.0
31
-519.61523
12
800.0
22
100.0
32
-519.61523
13
800.0001
23
100.0001
33
-519.6151
0
3DFACE
8
0
10
800.0
20
100.0
30
-519.61523
11
200.0
21
100.0
31
-519.61523
12
200.0
22
-300.0
32
-519.61523
13
200.0001
23
-299.9999
33
-519.6151
0
3DFACE
8
0
10
200.0
20
-300.0
30
-119.615234
11
800.0
21
-300.0
31
-119.615234
12
800.0
22
100.0
32
-119.615234
13
800.0001
23
100.0001
33
-119.615135
0
3DFACE
8
0
10
800.0
20
100.0
30
-119.615234
11
200.0
21
100.0
31
-119.615234
12
200.0
22
-300.0
32
-119.615234
13
200.0001
23
-299.9999
33
-119.615135
0
3DFACE
8
0
10
200.0
20
-300.0
30
-519.61523
11
200.0
21
-300.0
31
-119.615234
12
200.0
22
100.0
32
-119.615234
13
200.0001
23
100.0001
33
-119.615135
0
3DFACE
8
0
10
200.0
20
100.0
30
-119.615234
11
200.0
21
100.0
31
-519.61523
12
200.0
22
-300.0
32
-519.61523
13
200.0001
23
-299.9999
33
-519.6151
0
3DFACE
8
0
10
800.0
20
-300.0
30
-519.61523
11
800.0
21
100.0
31
-519.61523
12
800.0
22
100.0
32
-119.615234
13
800.0001
23
100.0001
33
-119.615135
0
3DFACE
8
0
10
800.0
20
100.0
30
-119.615234
11
800.0
21
-300.0
31
-119.615234
12
800.0
22
-300.0
32
-519.61523
13
800.0001
23
-299.9999
33
-519.6151
0
3DFACE
8
0
10
200.0
20
-300.0
30
-519.61523
11
800.0
21
-300.0
31
-519.61523
12
800.0
22
-300.0
32
-119.615234
13
800.0001
23
-299.9999
33
-119.615135
0
3DFACE
8
0
10
800.0
20
-300.0
30
-119.615234
11
200.0
21
-300.0
31
-119.615234
12
200.0
22
-300.0
32
-519.61523
13
200.0001
23
-299.9999
33
-519.6151
0
3DFACE
8
0
10
200.0
20
100.0
30
-519.61523
11
800.0
21
100.0
31
-519.61523
12
800.0
22
100.0
32
-119.615234
13
800.0001
23
100.0001
33
-119.615135
0
3DFACE
8
0
10
800.0
20
100.0
30
-119.615234
11
200.0
21
100.0
31
-119.615234
12
200.0
22
100.0
32
-519.61523
13
200.0001
23
100.0001
33
-519.6151
0
3DFACE
8
0
10
-400.0
20
-300.0
30
-119.615234
11
200.0
21
-300.0
31
-119.615234
12
200.0
22
100.0
32
-119.615234
13
200.0001
23
100.0001
33
-119.615135
0
3DFACE
8
0
10
200.0
20
100.0
30
-119.615234
11
-400.0
21
100.0
31
-119.615234
12
-400.0
22
-300.0
32
-119.615234
13
-399.9999
23
-299.9999
33
-119.615135
0
3DFACE
8
0
10
-400.0
20
-300.0
30
280.38477
11
200.0
21
-300.0
31
280.38477
12
200.0
22
100.0
32
280.38477
13
200.0001
23
100.0001
33
280.38486
0
3DFACE
8
0
10
200.0
20
100.0
30
280.38477
11
-400.0
21
100.0
31
280.38477
12
-400.0
22
-300.0
32
280.38477
13
-399.9999
23
-299.9999
33
280.38486
0
3DFACE
8
0
10
-400.0
20
-300.0
30
-119.615234
11
-400.0
21
-300.0
31
280.38477
12
-400.0
22
100.0
32
280.38477
13
-399.9999
23
100.0001
33
280.38486
0
3DFACE
8
0
10
-400.0
20
100.0
30
280.38477
11
-400.0
21
100.0
31
-119.615234
12
-400.0
22
-300.0
32
-119.615234
13
-399.9999
23
-299.9999
33
-119.615135
0
3DFACE
8
0
10
200.0
20
-300.0
30
-119.615234
11
200.0
21
100.0
31
-119.615234
12
200.0
22
100.0
32
280.38477
13
200.0001
23
100.0001
33
280.38486
0
3DFACE
8
0
10
200.0
20
100.0
30
280.38477
11
200.0
21
-300.0
31
280.38477
12
200.0
22
-300.0
32
-119.615234
13
200.0001
23
-299.9999
33
-119.615135
0
3DFACE
8
0
10
-400.0
20
-300.0
30
-119.615234
11
200.0
21
-300.0
31
-119.615234
12
200.0
22
-300.0
32
280.38477
13
200.0001
23
-299.9999
33
280.38486
0
3DFACE
8
0
10
200.0
20
-300.0
30
280.38477
11
-400.0
21
-300.0
31
280.38477
12
-400.0
22
-300.0
32
-119.615234
13
-399.9999
23
-299.9999
33
-119.615135
0
3DFACE
8
0
10
-400.0
20
100.0
30
-119.615234
11
200.0
21
100.0
31
-119.615234
12
200.0
22
100.0
32
280.38477
13
200.0001
23
100.0001
33
280.38486
0
3DFACE
8
0
10
200.0
20
100.0
30
280.38477
11
-400.0
21
100.0
31
280.38477
12
-400.0
22
100.0
32
-119.615234
13
-399.9999
23
100.0001
33
-119.615135
0
3DFACE
8
0
10
200.0
20
-300.0
30
-119.615234
11
800.0
21
-300.0
31
-119.615234
12
800.0
22
100.0
32
-119.615234
13
800.0001
23
100.0001
33
-119.615135
0
3DFACE
8
0
10
800.0
20
100.0
30
-119.615234
11
200.0
21
100.0
31
-119.615234
12
200.0
22
-300.0
32
-119.615234
13
200.0001
23
-299.9999
33
-119.615135
0
3DFACE
8
0
10
200.0
20
-300.0
30
280.38477
11
800.0
21
-300.0
31
280.38477
12
800.0
22
100.0
32
280.38477
13
800.0001
23
100.0001
33
280.38486
0
3DFACE
8
0
10
800.0
20
100.0
30
280.38477
11
200.0
21
100.0
31
280.38477
12
200.0
22
-300.0
32
280.38477
13
200.0001
23
-299.9999
33
280.38486
0
3DFACE
8
0
10
200.0
20
-300.0
30
-119.615234
11
200.0
21
-300.0
31
280.38477
12
200.0
22
100.0
32
280.38477
13
200.0001
23
100.0001
33
280.38486
0
3DFACE
8
0
10
200.0
20
100.0
30
280.38477
11
200.0
21
100.0
31
-119.615234
12
200.0
22
-300.0
32
-119.615234
13
200.0001
23
-299.9999
33
-119.615135
0
3DFACE
8
0
10
800.0
20
-300.0
30
-119.615234
11
800.0
21
100.0
31
-119.615234
12
800.0
22
100.0
32
280.38477
13
800.0001
23
100.0001
33
280.38486
0
3DFACE
8
0
10
800.0
20
100.0
30
280.38477
11
800.0
21
-300.0
31
280.38477
12
800.0
22
-300.0
32
-119.615234
13
800.0001
23
-299.9999
33
-119.615135
0
3DFACE
8
0
10
200.0
20
-300.0
30
-119.615234
11
800.0
21
-300.0
31
-119.615234
12
800.0
22
-300.0
32
280.38477
13
800.0001
23
-299.9999
33
280.38486
0
3DFACE
8
0
10
800.0
20
-300.0
30
280.38477
11
200.0
21
-300.0
31
280.38477
12
200.0
22
-300.0
32
-119.615234
13
200.0001
23
-299.9999
33
-119.615135
0
3DFACE
8
0
10
200.0
20
100.0
30
-119.615234
11
800.0
21
100.0
31
-119.615234
12
800.0
22
100.0
32
280.38477
13
800.0001
23
100.0001
33
280.38486
0
3DFACE
8
0
10
800.0
20
100.0
30
280.38477
11
200.0
21
100.0
31
280.38477
12
200.0
22
100.0
32
-119.615234
13
200.0001
23
100.0001
33
-119.615135
0
3DFACE
8
0
10
-400.0
20
100.0
30
-519.61523
11
200.0
21
100.0
31
-519.61523
12
200.0
22
500.0
32
-519.61523
13
200.0001
23
500.0001
33
-519.6151
0
3DFACE
8
0
10
200.0
20
500.0
30
-519.61523
11
-400.0
21
500.0
31
-519.61523
12
-400.0
22
100.0
32
-519.61523
13
-399.9999
23
100.0001
33
-519.6151
0
3DFACE
8
0
10
-400.0
20
100.0
30
-119.615234
11
200.0
21
100.0
31
-119.615234
12
200.0
22
500.0
32
-119.615234
13
200.0001
23
500.0001
33
-119.615135
0
3DFACE
8
0
10
200.0
20
500.0
30
-119.615234
11
-400.0
21
500.0
31
-119.615234
12
-400.0
22
100.0
32
-119.615234
13
-399.9999
23
100.0001
33
-119.615135
0
3DFACE
8
0
10
-400.0
20
100.0
30
-519.61523
11
-400.0
21
100.0
31
-119.615234
12
-400.0
22
500.0
32
-119.615234
13
-399.9999
23
500.0001
33
-119.615135
0
3DFACE
8
0
10
-400.0
20
500.0
30
-119.615234
11
-400.0
21
500.0
31
-519.61523
12
-400.0
22
100.0
32
-519.61523
13
-399.9999
23
100.0001
33
-519.6151
0
3DFACE
8
0
10
200.0
20
100.0
30
-519.61523
11
200.0
21
500.0
31
-519.61523
12
200.0
22
500.0
32
-119.615234
13
200.0001
23
500.0001
33
-119.615135
0
3DFACE
8
0
10
200.0
20
500.0
30
-119.615234
11
200.0
21
100.0
31
-119.615234
12
200.0
22
100.0
32
-519.61523
13
200.0001
23
100.0001
33
-519.6151
0
3DFACE
8
0
10
-400.0
20
100.0
30
-519.61523
11
200.0
21
100.0
31
-519.61523
12
200.0
22
100.0
32
-119.615234
13
200.0001
23
100.0001
33
-119.615135
0
3DFACE
8
0
10
200.0
20
100.0
30
-119.615234
11
-400.0
21
100.0
31
-119.615234
12
-400.0
22
100.0
32
-519.61523
13
-399.9999
23
100.0001
33
-519.6151
0
3DFACE
8
0
10
-400.0
20
500.0
30
-519.61523
11
200.0
21
500.0
31
-519.61523
12
200.0
22
500.0
32
-119.615234
13
200.0001
23
500.0001
33
-119.615135
0
3DFACE
8
0
10
200.0
20
500.0
30
-119.615234
11
-400.0
21
500.0
31
-119.615234
12
-400.0
22
500.0
32
-519.61523
13
-399.9999
23
500.0001
33
-519.6151
0
3DFACE
8
0
10
200.0
20
100.0
30
-519.61523
11
800.0
21
100.0
31
-519.61523
12
800.0
22
500.0
32
-519.61523
13
800.0001
23
500.0001
33
-519.6151
0
3DFACE
8
0
10
800.0
20
500.0
30
-519.61523
11
200.0
21
500.0
31
-519.61523
12
200.0
22
100.0
32
-519.61523
13
200.0001
23
100.0001
33
-519.6151
0
3DFACE
8
0
10
200.0
20
100.0
30
-119.615234
11
800.0
21
100.0
31
-119.615234
12
800.0
22
500.0
32
-119.615234
13
800.0001
23
500.0001
33
-119.615135
0
3DFACE
8
0
10
800.0
20
500.0
30
-119.615234
11
200.0
21
500.0
31
-119.615234
12
200.0
22
100.0
32
-119.615234
13
200.0001
23
100.0001
33
-119.615135
0
3DFACE
8
0
10
200.0
20
100.0
30
-519.61523
11
200.0
21
100.0
31
-119.615234
12
200.0
22
500.0
32
-119.615234
13
200.0001
23
500.0001
33
-119.615135
0
3DFACE
8
0
10
200.0
20
500.0
30
-119.615234
11
200.0
21
500.0
31
-519.61523
12
200.0
22
100.0
32
-519.61523
13
200.0001
23
100.0001
33
-519.6151
0
3DFACE
8
0
10
800.0
20
100.0
30
-519.61523
11
800.0
21
500.0
31
-519.61523
12
800.0
22
500.0
32
-119.615234
13
800.0001
23
500.0001
33
-119.615135
0
3DFACE
8
0
10
800.0
20
500.0
30
-119.615234
11
800.0
21
100.0
31
-119.615234
12
800.0
22
100.0
32
-519.61523
13
800.0001
23
100.0001
33
-519.6151
0
3DFACE
8
0
10
200.0
20
100.0
30
-519.61523
11
800.0
21
100.0
31
-519.61523
12
800.0
22
100.0
32
-119.615234
13
800.0001
23
100.0001
33
-119.615135
0
3DFACE
8
0
10
800.0
20
100.0
30
-119.615234
11
200.0
21
100.0
31
-119.615234
12
200.0
22
100.0
32
-519.61523
13
200.0001
23
100.0001
33
-519.6151
0
3DFACE
8
0
10
200.0
20
500.0
30
-519.61523
11
800.0
21
500.0
31
-519.61523
12
800.0
22
500.0
32
-119.615234
13
800.0001
23
500.0001
33
-119.615135
0
3DFACE
8
0
10
800.0
20
500.0
30
-119.615234
11
200.0
21
500.0
31
-119.615234
12
200.0
22
500.0
32
-519.61523
13
200.0001
23
500.0001
33
-519.6151
0
3DFACE
8
0
10
-400.0
20
100.0
30
-119.615234
11
200.0
21
100.0
31
-119.615234
12
200.0
22
500.0
32
-119.615234
13
200.0001
23
500.0001
33
-119.615135
0
3DFACE
8
0
10
200.0
20
500.0
30
-119.615234
11
-400.0
21
500.0
31
-119.615234
12
-400.0
22
100.0
32
-119.615234
13
-399.9999
23
100.0001
33
-119.615135
0
3DFACE
8
0
10
-400.0
20
100.0
30
280.38477
11
200.0
21
100.0
31
280.38477
12
200.0
22
500.0
32
280.38477
13
200.0001
23
500.0001
33
280.38486
0
3DFACE
8
0
10
200.0
20
500.0
30
280.38477
11
-400.0
21
500.0
31
280.38477
12
-400.0
22
100.0
32
280.38477
13
-399.9999
23
100.0001
33
280.38486
0
3DFACE
8
0
10
-400.0
20
100.0
30
-119.615234
11
-400.0
21
100.0
31
280.38477
12
-400.0
22
500.0
32
280.38477
13
-399.9999
23
500.0001
33
280.38486
0
3DFACE
8
0
10
-400.0
20
500.0
30
280.38477
11
-400.0
21
500.0
31
-119.615234
12
-400.0
22
100.0
32
-119.615234
13
-399.9999
23
100.0001
33
-119.615135
0
3DFACE
8
0
10
200.0
20
100.0
30
-119.615234
11
200.0
21
500.0
31
-119.615234
12
200.0
22
500.0
32
280.38477
13
200.0001
23
500.0001
33
280.38486
0
3DFACE
8
0
10
200.0
20
500.0
30
280.38477
11
200.0
21
100.0
31
280.38477
12
200.0
22
100.0
32
-119.615234
13
200.0001
23
100.0001
33
-119.615135
0
3DFACE
8
0
10
-400.0
20
100.0
30
-119.615234
11
200.0
21
100.0
31
-119.615234
12
200.0
22
100.0
32
280.38477
13
200.0001
23
100.0001
33
280.38486
0
3DFACE
8
0
10
200.0
20
100.0
30
280.38477
11
-400.0
21
100.0
31
280.38477
12
-400.0
22
100.0
32
-119.615234
13
-399.9999
23
100.0001
33
-119.615135
0
3DFACE
8
0
10
-400.0
20
500.0
30
-119.615234
11
200.0
21
500.0
31
-119.615234
12
200.0
22
500.0
32
280.38477
13
200.0001
23
500.0001
33
280.38486
0
3DFACE
8
0
10
200.0
20
500.0
30
280.38477
11
-400.0
21
500.0
31
280.38477
12
-400.0
22
500.0
32
-119.615234
13
-399.9999
23
500.0001
33
-119.615135
0
3DFACE
8
0
10
200.0
20
100.0
30
-119.615234
11
800.0
21
100.0
31
-119.615234
12
800.0
22
500.0
32
-119.615234
13
800.0001
23
500.0001
33
-119.615135
0
3DFACE
8
0
10
800.0
20
500.0
30
-119.615234
11
200.0
21
500.0
31
-119.615234
12
200.0
22
100.0
32
-119.615234
13
200.0001
23
100.0001
33
-119.615135
0
3DFACE
8
0
10
200.0
20
100.0
30
280.38477
11
800.0
21
100.0
31
280.38477
12
800.0
22
500.0
32
280.38477
13
800.0001
23
500.0001
33
280.38486
0
3DFACE
8
0
10
800.0
20
500.0
30
280.38477
11
200.0
21
500.0
31
280.38477
12
200.0
22
100.0
32
280.38477
13
200.0001
23
100.0001
33
280.38486
0
3DFACE
8
0
10
200.0
20
100.0
30
-119.615234
11
200.0
21
100.0
31
280.38477
12
200.0
22
500.0
32
280.38477
13
200.0001
23
500.0001
33
280.38486
0
3DFACE
8
0
10
200.0
20
500.0
30
280.38477
11
200.0
21
500.0
31
-119.615234
12
200.0
22
100.0
32
-119.615234
13
200.0001
23
100.0001
33
-119.615135
0
3DFACE
8
0
10
800.0
20
100.0
30
-119.615234
11
800.0
21
500.0
31
-119.615234
12
800.0
22
500.0
32
280.38477
13
800.0001
23
500.0001
33
280.38486
0
3DFACE
8
0
10
800.0
20
500.0
30
280.38477
11
800.0
21
100.0
31
280.38477
12
800.0
22
100.0
32
-119.615234
13
800.0001
23
100.0001
33
-119.615135
0
3DFACE
8
0
10
200.0
20
100.0
30
-119.615234
11
800.0
21
100.0
31
-119.615234
12
800.0
22
100.0
32
280.38477
13
800.0001
23
100.0001
33
280.38486
0
3DFACE
8
0
10
800.0
20
100.0
30
280.38477
11
200.0
21
100.0
31
280.38477
12
200.0
22
100.0
32
-119.615234
13
200.0001
23
100.0001
33
-119.615135
0
3DFACE
8
0
10
200.0
20
500.0
30
-119.615234
11
800.0
21
500.0
31
-119.615234
12
800.0
22
500.0
32
280.38477
13
800.0001
23
500.0001
33
280.38486
0
3DFACE
8
0
10
800.0
20
500.0
30
280.38477
11
200.0
21
500.0
31
280.38477
12
200.0
22
500.0
32
-119.615234
13
200.0001
23
500.0001
33
-119.615135
0
3DFACE
8
0
10
-400.0
20
500.0
30
-519.61523
11
200.0
21
500.0
31
-519.61523
12
200.0
22
900.0
32
-519.61523
13
200.0001
23
900.0001
33
-519.6151
0
3DFACE
8
0
10
200.0
20
900.0
30
-519.61523
11
-400.0
21
900.0
31
-519.61523
12
-400.0
22
500.0
32
-519.61523
13
-399.9999
23
500.0001
33
-519.6151
0
3DFACE
8
0
10
-400.0
20
500.0
30
-119.615234
11
200.0
21
500.0
31
-119.615234
12
200.0
22
900.0
32
-119.615234
13
200.0001
23
900.0001
33
-119.615135
0
3DFACE
8
0
10
200.0
20
900.0
30
-119.615234
11
-400.0
21
900.0
31
-119.615234
12
-400.0
22
500.0
32
-119.615234
13
-399.9999
23
500.0001
33
-119.615135
0
3DFACE
8
0
10
-400.0
20
500.0
30
-519.61523
11
-400.0
21
500.0
31
-119.615234
12
-400.0
22
900.0
32
-119.615234
13
-399.9999
23
900.0001
33
-119.615135
0
3DFACE
8
0
10
-400.0
20
900.0
30
-119.615234
11
-400.0
21
900.0
31
-519.61523
12
-400.0
22
500.0
32
-519.61523
13
-399.9999
23
500.0001
33
-519.6151
0
3DFACE
8
0
10
200.0
20
500.0
30
-519.61523
11
200.0
21
900.0
31
-519.61523
12
200.0
22
900.0
32
-119.615234
13
200.0001
23
900.0001
33
-119.615135
0
3DFACE
8
0
10
200.0
20
900.0
30
-119.615234
11
200.0
21
500.0
31
-119.615234
12
200.0
22
500.0
32
-519.61523
13
200.0001
23
500.0001
33
-519.6151
0
3DFACE
8
0
10
-400.0
20
500.0
30
-519.61523
11
200.0
21
500.0
31
-519.61523
12
200.0
22
500.0
32
-119.615234
13
200.0001
23
500.0001
33
-119.615135
0
3DFACE
8
0
10
200.0
20
500.0
30
-119.615234
11
-400.0
21
500.0
31
-119.615234
12
-400.0
22
500.0
32
-519.61523
13
-399.9999
23
500.0001
33
-519.6151
0
3DFACE
8
0
10
-400.0
20
900.0
30
-519.61523
11
200.0
21
900.0
31
-519.61523
12
200.0
22
900.0
32
-119.615234
13
200.0001
23
900.0001
33
-119.615135
0
3DFACE
8
0
10
200.0
20
900.0
30
-119.615234
11
-400.0
21
900.0
31
-119.615234
12
-400.0
22
900.0
32
-519.61523
13
-399.9999
23
900.0001
33
-519.6151
0
3DFACE
8
0
10
200.0
20
500.0
30
-519.61523
11
800.0
21
500.0
31
-519.61523
12
800.0
22
900.0
32
-519.61523
13
800.0001
23
900.0001
33
-519.6151
0
3DFACE
8
0
10
800.0
20
900.0
30
-519.61523
11
200.0
21
900.0
31
-519.61523
12
200.0
22
500.0
32
-519.61523
13
200.0001
23
500.0001
33
-519.6151
0
3DFACE
8
0
10
200.0
20
500.0
30
-119.615234
11
800.0
21
500.0
31
-119.615234
12
800.0
22
900.0
32
-119.615234
13
800.0001
23
900.0001
33
-119.615135
0
3DFACE
8
0
10
800.0
20
900.0
30
-119.615234
11
200.0
21
900.0
31
-119.615234
12
200.0
22
500.0
32
-119.615234
13
200.0001
23
500.0001
33
-119.615135
0
3DFACE
8
0
10
200.0
20
500.0
30
-519.61523
11
200.0
21
500.0
31
-119.615234
12
200.0
22
900.0
32
-119.615234
13
200.0001
23
900.0001
33
-119.615135
0
3DFACE
8
0
10
200.0
20
900.0
30
-119.615234
11
200.0
21
900.0
31
-519.61523
12
200.0
22
500.0
32
-519.61523
13
200.0001
23
500.0001
33
-519.6151
0
3DFACE
8
0
10
800.0
20
500.0
30
-519.61523
11
800.0
21
900.0
31
-519.61523
12
800.0
22
900.0
32
-119.615234
13
800.0001
23
900.0001
33
-119.615135
0
3DFACE
8
0
10
800.0
20
900.0
30
-119.615234
11
800.0
21
500.0
31
-119.615234
12
800.0
22
500.0
32
-519.61523
13
800.0001
23
500.0001
33
-519.6151
0
3DFACE
8
0
10
200.0
20
500.0
30
-519.61523
11
800.0
21
500.0
31
-519.61523
12
800.0
22
500.0
32
-119.615234
13
800.0001
23
500.0001
33
-119.615135
0
3DFACE
8
0
10
800.0
20
500.0
30
-119.615234
11
200.0
21
500.0
31
-119.615234
12
200.0
22
500.0
32
-519.61523
13
200.0001
23
500.0001
33
-519.6151
0
3DFACE
8
0
10
200.0
20
900.0
30
-519.61523
11
800.0
21
900.0
31
-519.61523
12
800.0
22
900.0
32
-119.615234
13
800.0001
23
900.0001
33
-119.615135
0
3DFACE
8
0
10
800.0
20
900.0
30
-119.615234
11
200.0
21
900.0
31
-119.615234
12
200.0
22
900.0
32
-519.61523
13
200.0001
23
900.0001
33
-519.6151
0
3DFACE
8
0
10
-400.0
20
500.0
30
-119.615234
11
100.0
21
500.0
31
-119.615234
12
100.0
22
900.0
32
-119.615234
13
100.0001
23
900.0001
33
-119.615135
0
3DFACE
8
0
10
100.0
20
900.0
30
-119.615234
11
-400.0
21
900.0
31
-119.615234
12
-400.0
22
500.0
32
-119.615234
13
-399.9999
23
500.0001
33
-119.615135
0
3DFACE
8
0
10
-400.0
20
500.0
30
280.38477
11
100.0
21
500.0
31
280.38477
12
100.0
22
900.0
32
280.38477
13
100.0001
23
900.0001
33
280.38486
0
3DFACE
8
0
10
100.0
20
900.0
30
280.38477
11
-400.0
21
900.0
31
280.38477
12
-400.0
22
500.0
32
280.38477
13
-399.9999
23
500.0001
33
280.38486
0
3DFACE
8
0
10
-400.0
20
500.0
30
-119.615234
11
-400.0
21
500.0
31
280.38477
12
-400.0
22
900.0
32
280.38477
13
-399.9999
23
900.0001
33
280.38486
0
3DFACE
8
0
10
-400.0
20
900.0
30
280.38477
11
-400.0
21
900.0
31
-119.615234
12
-400.0
22
500.0
32
-119.615234
13
-399.9999
23
500.0001
33
-119.615135
0
3DFACE
8
0
10
100.0
20
500.0
30
-119.615234
11
100.0
21
900.0
31
-119.615234
12
100.0
22
900.0
32
280.38477
13
100.0001
23
900.0001
33
280.38486
0
3DFACE
8
0
10
100.0
20
900.0
30
280.38477
11
100.0
21
500.0
31
280.38477
12
100.0
22
500.0
32
-119.615234
13
100.0001
23
500.0001
33
-119.615135
0
3DFACE
8
0
10
-400.0
20
500.0
30
-119.615234
11
100.0
21
500.0
31
-119.615234
12
100.0
22
500.0
32
280.38477
13
100.0001
23
500.0001
33
280.38486
0
3DFACE
8
0
10
100.0
20
500.0
30
280.38477
11
-400.0
21
500.0
31
280.38477
12
-400.0
22
500.0
32
-119.615234
13
-399.9999
23
500.0001
33
-119.615135
0
3DFACE
8
0
10
-400.0
20
900.0
30
-119.615234
11
100.0
21
900.0
31
-119.615234
12
100.0
22
900.0
32
280.38477
13
100.0001
23
900.0001
33
280.38486
0
3DFACE
8
0
10
100.0
20
900.0
30
280.38477
11
-400.0
21
900.0
31
280.38477
12
-400.0
22
900.0
32
-119.615234
13
-399.9999
23
900.0001
33
-119.615135
0
3DFACE
8
0
10
100.0
20
500.0
30
-119.615234
11
600.0
21
500.0
31
-119.615234
12
600.0
22
900.0
32
-119.615234
13
600.0001
23
900.0001
33
-119.615135
0
3DFACE
8
0
10
600.0
20
900.0
30
-119.615234
11
100.0
21
900.0
31
-119.615234
12
100.0
22
500.0
32
-119.615234
13
100.0001
23
500.0001
33
-119.615135
0
3DFACE
8
0
10
100.0
20
500.0
30
280.38477
11
600.0
21
500.0
31
280.38477
12
600.0
22
900.0
32
280.38477
13
600.0001
23
900.0001
33
280.38486
0
3DFACE
8
0
10
600.0
20
900.0
30
280.38477
11
100.0
21
900.0
31
280.38477
12
100.0
22
500.0
32
280.38477
13
100.0001
23
500.0001
33
280.38486
0
3DFACE
8
0
10
100.0
20
500.0
30
-119.615234
11
100.0
21
500.0
31
280.38477
12
100.0
22
900.0
32
280.38477
13
100.0001
23
900.0001
33
280.38486
0
3DFACE
8
0
10
100.0
20
900.0
30
280.38477
11
100.0
21
900.0
31
-119.615234
12
100.0
22
500.0
32
-119.615234
13
100.0001
23
500.0001
33
-119.615135
0
3DFACE
8
0
10
600.0
20
500.0
30
-119.615234
11
600.0
21
900.0
31
-119.615234
12
600.0
22
900.0
32
280.38477
13
600.0001
23
900.0001
33
280.38486
0
3DFACE
8
0
10
600.0
20
900.0
30
280.38477
11
600.0
21
500.0
31
280.38477
12
600.0
22
500.0
32
-119.615234
13
600.0001
23
500.0001
33
-119.615135
0
3DFACE
8
0
10
100.0
20
500.0
30
-119.615234
11
600.0
21
500.0
31
-119.615234
12
600.0
22
500.0
32
280.38477
13
600.0001
23
500.0001
33
280.38486
0
3DFACE
8
0
10
600.0
20
500.0
30
280.38477
11
100.0
21
500.0
31
280.38477
12
100.0
22
500.0
32
-119.615234
13
100.0001
23
500.0001
33
-119.615135
0
3DFACE
8
0
10
100.0
20
900.0
30
-119.615234
11
600.0
21
900.0
31
-119.615234
12
600.0
22
900.0
32
280.38477
13
600.0001
23
900.0001
33
280.38486
0
3DFACE
8
0
10
600.0
20
900.0
30
280.38477
11
100.0
21
900.0
31
280.38477
12
100.0
22
900.0
32
-119.615234
13
100.0001
23
900.0001
33
-119.615135
0
3DFACE
8
0
10
600.0
20
500.0
30
-119.615234
11
800.0
21
500.0
31
-119.615234
12
800.0
22
900.0
32
-119.615234
13
800.0001
23
900.0001
33
-119.615135
0
3DFACE
8
0
10
800.0
20
900.0
30
-119.615234
11
600.0
21
900.0
31
-119.615234
12
600.0
22
500.0
32
-119.615234
13
600.0001
23
500.0001
33
-119.615135
0
3DFACE
8
0
10
600.0
20
500.0
30
60.384766
11
800.0
21
500.0
31
60.384766
12
800.0
22
900.0
32
60.384766
13
800.0001
23
900.0001
33
60.384865
0
3DFACE
8
0
10
800.0
20
900.0
30
60.384766
11
600.0
21
900.0
31
60.384766
12
600.0
22
500.0
32
60.384766
13
600.0001
23
500.0001
33
60.384865
0
3DFACE
8
0
10
600.0
20
500.0
30
-119.615234
11
600.0
21
500.0
31
60.384766
12
600.0
22
900.0
32
60.384766
13
600.0001
23
900.0001
33
60.384865
0
3DFACE
8
0
10
600.0
20
900.0
30
60.384766
11
600.0
21
900.0
31
-119.615234
12
600.0
22
500.0
32
-119.615234
13
600.0001
23
500.0001
33
-119.615135
0
3DFACE
8
0
10
800.0
20
500.0
30
-119.615234
11
800.0
21
900.0
31
-119.615234
12
800.0
22
900.0
32
60.384766
13
800.0001
23
900.0001
33
60.384865
0
3DFACE
8
0
10
800.0
20
900.0
30
60.384766
11
800.0
21
500.0
31
60.384766
12
800.0
22
500.0
32
-119.615234
13
800.0001
23
500.0001
33
-119.615135
0
3DFACE
8
0
10
600.0
20
500.0
30
-119.615234
11
800.0
21
500.0
31
-119.615234
12
800.0
22
500.0
32
60.384766
13
800.0001
23
500.0001
33
60.384865
0
3DFACE
8
0
10
800.0
20
500.0
30
60.384766
11
600.0
21
500.0
31
60.384766
12
600.0
22
500.0
32
-119.615234
13
600.0001
23
500.0001
33
-119.615135
0
3DFACE
8
0
10
600.0
20
900.0
30
-119.615234
11
800.0
21
900.0
31
-119.615234
12
800.0
22
900.0
32
60.384766
13
800.0001
23
900.0001
33
60.384865
0
3DFACE
8
0
10
800.0
20
900.0
30
60.384766
11
600.0
21
900.0
31
60.384766
12
600.0
22
900.0
32
-119.615234
13
600.0001
23
900.0001
33
-119.615135
0
3DFACE
8
0
10
600.0
20
500.0
30
60.384766
11
800.0
21
500.0
31
60.384766
12
800.0
22
900.0
32
60.384766
13
800.0001
23
900.0001
33
60.384865
0
3DFACE
8
0
10
800.0
20
900.0
30
60.384766
11
600.0
21
900.0
31
60.384766
12
600.0
22
500.0
32
60.384766
13
600.0001
23
500.0001
33
60.384865
0
3DFACE
8
0
10
600.0
20
500.0
30
240.38477
11
800.0
21
500.0
31
240.38477
12
800.0
22
900.0
32
240.38477
13
800.0001
23
900.0001
33
240.38487
0
3DFACE
8
0
10
800.0
20
900.0
30
240.38477
11
600.0
21
900.0
31
240.38477
12
600.0
22
500.0
32
240.38477
13
600.0001
23
500.0001
33
240.38487
0
3DFACE
8
0
10
600.0
20
500.0
30
60.384766
11
600.0
21
500.0
31
240.38477
12
600.0
22
900.0
32
240.38477
13
600.0001
23
900.0001
33
240.38487
0
3DFACE
8
0
10
600.0
20
900.0
30
240.38477
11
600.0
21
900.0
31
60.384766
12
600.0
22
500.0
32
60.384766
13
600.0001
23
500.0001
33
60.384865
0
3DFACE
8
0
10
800.0
20
500.0
30
60.384766
11
800.0
21
900.0
31
60.384766
12
800.0
22
900.0
32
240.38477
13
800.0001
23
900.0001
33
240.38487
0
3DFACE
8
0
10
800.0
20
900.0
30
240.38477
11
800.0
21
500.0
31
240.38477
12
800.0
22
500.0
32
60.384766
13
800.0001
23
500.0001
33
60.384865
0
3DFACE
8
0
10
600.0
20
500.0
30
60.384766
11
800.0
21
500.0
31
60.384766
12
800.0
22
500.0
32
240.38477
13
800.0001
23
500.0001
33
240.38487
0
3DFACE
8
0
10
800.0
20
500.0
30
240.38477
11
600.0
21
500.0
31
240.38477
12
600.0
22
500.0
32
60.384766
13
600.0001
23
500.0001
33
60.384865
0
3DFACE
8
0
10
600.0
20
900.0
30
60.384766
11
800.0
21
900.0
31
60.384766
12
800.0
22
900.0
32
240.38477
13
800.0001
23
900.0001
33
240.38487
0
3DFACE
8
0
10
800.0
20
900.0
30
240.38477
11
600.0
21
900.0
31
240.38477
12
600.0
22
900.0
32
60.384766
13
600.0001
23
900.0001
33
60.384865
0
3DFACE
8
0
10
-400.0
20
900.0
30
-519.61523
11
100.0
21
900.0
31
-519.61523
12
100.0
22
1300.0
32
-519.61523
13
100.0001
23
1300.0001
33
-519.6151
0
3DFACE
8
0
10
100.0
20
1300.0
30
-519.61523
11
-400.0
21
1300.0
31
-519.61523
12
-400.0
22
900.0
32
-519.61523
13
-399.9999
23
900.0001
33
-519.6151
0
3DFACE
8
0
10
-400.0
20
900.0
30
-119.615234
11
100.0
21
900.0
31
-119.615234
12
100.0
22
1300.0
32
-119.615234
13
100.0001
23
1300.0001
33
-119.615135
0
3DFACE
8
0
10
100.0
20
1300.0
30
-119.615234
11
-400.0
21
1300.0
31
-119.615234
12
-400.0
22
900.0
32
-119.615234
13
-399.9999
23
900.0001
33
-119.615135
0
3DFACE
8
0
10
-400.0
20
900.0
30
-519.61523
11
-400.0
21
900.0
31
-119.615234
12
-400.0
22
1300.0
32
-119.615234
13
-399.9999
23
1300.0001
33
-119.615135
0
3DFACE
8
0
10
-400.0
20
1300.0
30
-119.615234
11
-400.0
21
1300.0
31
-519.61523
12
-400.0
22
900.0
32
-519.61523
13
-399.9999
23
900.0001
33
-519.6151
0
3DFACE
8
0
10
100.0
20
900.0
30
-519.61523
11
100.0
21
1300.0
31
-519.61523
12
100.0
22
1300.0
32
-119.615234
13
100.0001
23
1300.0001
33
-119.615135
0
3DFACE
8
0
10
100.0
20
1300.0
30
-119.615234
11
100.0
21
900.0
31
-119.615234
12
100.0
22
900.0
32
-519.61523
13
100.0001
23
900.0001
33
-519.6151
0
3DFACE
8
0
10
-400.0
20
900.0
30
-519.61523
11
100.0
21
900.0
31
-519.61523
12
100.0
22
900.0
32
-119.615234
13
100.0001
23
900.0001
33
-119.615135
0
3DFACE
8
0
10
100.0
20
900.0
30
-119.615234
11
-400.0
21
900.0
31
-119.615234
12
-400.0
22
900.0
32
-519.61523
13
-399.9999
23
900.0001
33
-519.6151
0
3DFACE
8
0
10
-400.0
20
1300.0
30
-519.61523
11
100.0
21
1300.0
31
-519.61523
12
100.0
22
1300.0
32
-119.615234
13
100.0001
23
1300.0001
33
-119.615135
0
3DFACE
8
0
10
100.0
20
1300.0
30
-119.615234
11
-400.0
21
1300.0
31
-119.615234
12
-400.0
22
1300.0
32
-519.61523
13
-399.9999
23
1300.0001
33
-519.6151
0
3DFACE
8
0
10
100.0
20
900.0
30
-519.61523
11
600.0
21
900.0
31
-519.61523
12
600.0
22
1300.0
32
-519.61523
13
600.0001
23
1300.0001
33
-519.6151
0
3DFACE
8
0
10
600.0
20
1300.0
30
-519.61523
11
100.0
21
1300.0
31
-519.61523
12
100.0
22
900.0
32
-519.61523
13
100.0001
23
900.0001
33
-519.6151
0
3DFACE
8
0
10
100.0
20
900.0
30
-119.615234
11
600.0
21
900.0
31
-119.615234
12
600.0
22
1300.0
32
-119.615234
13
600.0001
23
1300.0001
33
-119.615135
0
3DFACE
8
0
10
600.0
20
1300.0
30
-119.615234
11
100.0
21
1300.0
31
-119.615234
12
100.0
22
900.0
32
-119.615234
13
100.0001
23
900.0001
33
-119.615135
0
3DFACE
8
0
10
100.0
20
900.0
30
-519.61523
11
100.0
21
900.0
31
-119.615234
12
100.0
22
1300.0
32
-119.615234
13
100.0001
23
1300.0001
33
-119.615135
0
3DFACE
8
0
10
100.0
20
1300.0
30
-119.615234
11
100.0
21
1300.0
31
-519.61523
12
100.0
22
900.0
32
-519.61523
13
100.0001
23
900.0001
33
-519.6151
0
3DFACE
8
0
10
600.0
20
900.0
30
-519.61523
11
600.0
21
1300.0
31
-519.61523
12
600.0
22
1300.0
32
-119.615234
13
600.0001
23
1300.0001
33
-119.615135
0
3DFACE
8
0
10
600.0
20
1300.0
30
-119.615234
11
600.0
21
900.0
31
-119.615234
12
600.0
22
900.0
32
-519.61523
13
600.0001
23
900.0001
33
-519.6151
0
3DFACE
8
0
10
100.0
20
900.0
30
-519.61523
11
600.0
21
900.0
31
-519.61523
12
600.0
22
900.0
32
-119.615234
13
600.0001
23
900.0001
33
-119.615135
0
3DFACE
8
0
10
600.0
20
900.0
30
-119.615234
11
100.0
21
900.0
31
-119.615234
12
100.0
22
900.0
32
-519.61523
13
100.0001
23
900.0001
33
-519.6151
0
3DFACE
8
0
10
100.0
20
1300.0
30
-519.61523
11
600.0
21
1300.0
31
-519.61523
12
600.0
22
1300.0
32
-119.615234
13
600.0001
23
1300.0001
33
-119.615135
0
3DFACE
8
0
10
600.0
20
1300.0
30
-119.615234
11
100.0
21
1300.0
31
-119.615234
12
100.0
22
1300.0
32
-519.61523
13
100.0001
23
1300.0001
33
-519.6151
0
3DFACE
8
0
10
600.0
20
900.0
30
-519.61523
11
800.0
21
900.0
31
-519.61523
12
800.0
22
1300.0
32
-519.61523
13
800.0001
23
1300.0001
33
-519.6151
0
3DFACE
8
0
10
800.0
20
1300.0
30
-519.61523
11
600.0
21
1300.0
31
-519.61523
12
600.0
22
900.0
32
-519.61523
13
600.0001
23
900.0001
33
-519.6151
0
3DFACE
8
0
10
600.0
20
900.0
30
-339.61523
11
800.0
21
900.0
31
-339.61523
12
800.0
22
1300.0
32
-339.61523
13
800.0001
23
1300.0001
33
-339.61514
0
3DFACE
8
0
10
800.0
20
1300.0
30
-339.61523
11
600.0
21
1300.0
31
-339.61523
12
600.0
22
900.0
32
-339.61523
13
600.0001
23
900.0001
33
-339.61514
0
3DFACE
8
0
10
600.0
20
900.0
30
-519.61523
11
600.0
21
900.0
31
-339.61523
12
600.0
22
1300.0
32
-339.61523
13
600.0001
23
1300.0001
33
-339.61514
0
3DFACE
8
0
10
600.0
20
1300.0
30
-339.61523
11
600.0
21
1300.0
31
-519.61523
12
600.0
22
900.0
32
-519.61523
13
600.0001
23
900.0001
33
-519.6151
0
3DFACE
8
0
10
800.0
20
900.0
30
-519.61523
11
800.0
21
1300.0
31
-519.61523
12
800.0
22
1300.0
32
-339.61523
13
800.0001
23
1300.0001
33
-339.61514
0
3DFACE
8
0
10
800.0
20
1300.0
30
-339.61523
11
800.0
21
900.0
31
-339.61523
12
800.0
22
900.0
32
-519.61523
13
800.0001
23
900.0001
33
-519.6151
0
3DFACE
8
0
10
600.0
20
900.0
30
-519.61523
11
800.0
21
900.0
31
-519.61523
12
800.0
22
900.0
32
-339.61523
13
800.0001
23
900.0001
33
-339.61514
0
3DFACE
8
0
10
800.0
20
900.0
30
-339.61523
11
600.0
21
900.0
31
-339.61523
12
600.0
22
900.0
32
-519.61523
13
600.0001
23
900.0001
33
-519.6151
0
3DFACE
8
0
10
600.0
20
1300.0
30
-519.61523
11
800.0
21
1300.0
31
-519.61523
12
800.0
22
1300.0
32
-339.61523
13
800.0001
23
1300.0001
33
-339.61514
0
3DFACE
8
0
10
800.0
20
1300.0
30
-339.61523
11
600.0
21
1300.0
31
-339.61523
12
600.0
22
1300.0
32
-519.61523
13
600.0001
23
1300.0001
33
-519.6151
0
3DFACE
8
0
10
600.0
20
900.0
30
-339.61523
11
800.0
21
900.0
31
-339.61523
12
800.0
22
1300.0
32
-339.61523
13
800.0001
23
1300.0001
33
-339.61514
0
3DFACE
8
0
10
800.0
20
1300.0
30
-339.61523
11
600.0
21
1300.0
31
-339.61523
12
600.0
22
900.0
32
-339.61523
13
600.0001
23
900.0001
33
-339.61514
0
3DFACE
8
0
10
600.0
20
900.0
30
-159.61523
11
800.0
21
900.0
31
-159.61523
12
800.0
22
1300.0
32
-159.61523
13
800.0001
23
1300.0001
33
-159.61513
0
3DFACE
8
0
10
800.0
20
1300.0
30
-159.61523
11
600.0
21
1300.0
31
-159.61523
12
600.0
22
900.0
32
-159.61523
13
600.0001
23
900.0001
33
-159.61513
0
3DFACE
8
0
10
600.0
20
900.0
30
-339.61523
11
600.0
21
900.0
31
-159.61523
12
600.0
22
1300.0
32
-159.61523
13
600.0001
23
1300.0001
33
-159.61513
0
3DFACE
8
0
10
600.0
20
1300.0
30
-159.61523
11
600.0
21
1300.0
31
-339.61523
12
600.0
22
900.0
32
-339.61523
13
600.0001
23
900.0001
33
-339.61514
0
3DFACE
8
0
10
800.0
20
900.0
30
-339.61523
11
800.0
21
1300.0
31
-339.61523
12
800.0
22
1300.0
32
-159.61523
13
800.0001
23
1300.0001
33
-159.61513
0
3DFACE
8
0
10
800.0
20
1300.0
30
-159.61523
11
800.0
21
900.0
31
-159.61523
12
800.0
22
900.0
32
-339.61523
13
800.0001
23
900.0001
33
-339.61514
0
3DFACE
8
0
10
600.0
20
900.0
30
-339.61523
11
800.0
21
900.0
31
-339.61523
12
800.0
22
900.0
32
-159.61523
13
800.0001
23
900.0001
33
-159.61513
0
3DFACE
8
0
10
800.0
20
900.0
30
-159.61523
11
600.0
21
900.0
31
-159.61523
12
600.0
22
900.0
32
-339.61523
13
600.0001
23
900.0001
33
-339.61514
0
3DFACE
8
0
10
600.0
20
1300.0
30
-339.61523
11
800.0
21
1300.0
31
-339.61523
12
800.0
22
1300.0
32
-159.61523
13
800.0001
23
1300.0001
33
-159.61513
0
3DFACE
8
0
10
800.0
20
1300.0
30
-159.61523
11
600.0
21
1300.0
31
-159.61523
12
600.0
22
1300.0
32
-339.61523
13
600.0001
23
1300.0001
33
-339.61514
0
3DFACE
8
0
10
600.0
20
900.0
30
-159.61523
11
800.0
21
900.0
31
-159.61523
12
800.0
22
1300.0
32
-159.61523
13
800.0001
23
1300.0001
33
-159.61513
0
3DFACE
8
0
10
800.0
20
1300.0
30
-159.61523
11
600.0
21
1300.0
31
-159.61523
12
600.0
22
900.0
32
-159.61523
13
600.0001
23
900.0001
33
-159.61513
0
3DFACE
8
0
10
600.0
20
900.0
30
20.384766
11
800.0
21
900.0
31
20.384766
12
800.0
22
1300.0
32
20.384766
13
800.0001
23
1300.0001
33
20.384865
0
3DFACE
8
0
10
800.0
20
1300.0
30
20.384766
11
600.0
21
1300.0
31
20.384766
12
600.0
22
900.0
32
20.384766
13
600.0001
23
900.0001
33
20.384865
0
3DFACE
8
0
10
600.0
20
900.0
30
-159.61523
11
600.0
21
900.0
31
20.384766
12
600.0
22
1300.0
32
20.384766
13
600.0001
23
1300.0001
33
20.384865
0
3DFACE
8
0
10
600.0
20
1300.0
30
20.384766
11
600.0
21
1300.0
31
-159.61523
12
600.0
22
900.0
32
-159.61523
13
600.0001
23
900.0001
33
-159.61513
0
3DFACE
8
0
10
800.0
20
900.0
30
-159.61523
11
800.0
21
1300.0
31
-159.61523
12
800.0
22
1300.0
32
20.384766
13
800.0001
23
1300.0001
33
20.384865
0
3DFACE
8
0
10
800.0
20
1300.0
30
20.384766
11
800.0
21
900.0
31
20.384766
12
800.0
22
900.0
32
-159.61523
13
800.0001
23
900.0001
33
-159.61513
0
3DFACE
8
0
10
600.0
20
900.0
30
-159.61523
11
800.0
21
900.0
31
-159.61523
12
800.0
22
900.0
32
20.384766
13
800.0001
23
900.0001
33
20.384865
0
3DFACE
8
0
10
800.0
20
900.0
30
20.384766
11
600.0
21
900.0
31
20.384766
12
600.0
22
900.0
32
-159.61523
13
600.0001
23
900.0001
33
-159.61513
0
3DFACE
8
0
10
600.0
20
1300.0
30
-159.61523
11
800.0
21
1300.0
31
-159.61523
12
800.0
22
1300.0
32
20.384766
13
800.0001
23
1300.0001
33
20.384865
0
3DFACE
8
0
10
800.0
20
1300.0
30
20.384766
11
600.0
21
1300.0
31
20.384766
12
600.0
22
1300.0
32
-159.61523
13
600.0001
23
1300.0001
33
-159.61513
0
3DFACE
8
0
10
100.0
20
900.0
30
-119.615234
11
600.0
21
900.0
31
-119.615234
12
600.0
22
1300.0
32
-119.615234
13
600.0001
23
1300.0001
33
-119.615135
0
3DFACE
8
0
10
600.0
20
1300.0
30
-119.615234
11
100.0
21
1300.0
31
-119.615234
12
100.0
22
900.0
32
-119.615234
13
100.0001
23
900.0001
33
-119.615135
0
3DFACE
8
0
10
100.0
20
900.0
30
280.38477
11
600.0
21
900.0
31
280.38477
12
600.0
22
1300.0
32
280.38477
13
600.0001
23
1300.0001
33
280.38486
0
3DFACE
8
0
10
600.0
20
1300.0
30
280.38477
11
100.0
21
1300.0
31
280.38477
12
100.0
22
900.0
32
280.38477
13
100.0001
23
900.0001
33
280.38486
0
3DFACE
8
0
10
100.0
20
900.0
30
-119.615234
11
100.0
21
900.0
31
280.38477
12
100.0
22
1300.0
32
280.38477
13
100.0001
23
1300.0001
33
280.38486
0
3DFACE
8
0
10
100.0
20
1300.0
30
280.38477
11
100.0
21
1300.0
31
-119.615234
12
100.0
22
900.0
32
-119.615234
13
100.0001
23
900.0001
33
-119.615135
0
3DFACE
8
0
10
600.0
20
900.0
30
-119.615234
11
600.0
21
1300.0
31
-119.615234
12
600.0
22
1300.0
32
280.38477
13
600.0001
23
1300.0001
33
280.38486
0
3DFACE
8
0
10
600.0
20
1300.0
30
280.38477
11
600.0
21
900.0
31
280.38477
12
600.0
22
900.0
32
-119.615234
13
600.0001
23
900.0001
33
-119.615135
0
3DFACE
8
0
10
100.0
20
900.0
30
-119.615234
11
600.0
21
900.0
31
-119.615234
12
600.0
22
900.0
32
280.38477
13
600.0001
23
900.0001
33
280.38486
0
3DFACE
8
0
10
600.0
20
900.0
30
280.38477
11
100.0
21
900.0
31
280.38477
12
100.0
22
900.0
32
-119.615234
13
100.0001
23
900.0001
33
-119.615135
0
3DFACE
8
0
10
100.0
20
1300.0
30
-119.615234
11
600.0
21
1300.0
31
-119.615234
12
600.0
22
1300.0
32
280.38477
13
600.0001
23
1300.0001
33
280.38486
0
3DFACE
8
0
10
600.0
20
1300.0
30
280.38477
11
100.0
21
1300.0
31
280.38477
12
100.0
22
1300.0
32
-119.615234
13
100.0001
23
1300.0001
33
-119.615135
0
3DFACE
8
0
10
-400.0
20
900.0
30
-119.615234
11
100.0
21
900.0
31
-119.615234
12
100.0
22
1300.0
32
-119.615234
13
100.0001
23
1300.0001
33
-119.615135
0
3DFACE
8
0
10
100.0
20
1300.0
30
-119.615234
11
-400.0
21
1300.0
31
-119.615234
12
-400.0
22
900.0
32
-119.615234
13
-399.9999
23
900.0001
33
-119.615135
0
3DFACE
8
0
10
-400.0
20
900.0
30
280.38477
11
100.0
21
900.0
31
280.38477
12
100.0
22
1300.0
32
280.38477
13
100.0001
23
1300.0001
33
280.38486
0
3DFACE
8
0
10
100.0
20
1300.0
30
280.38477
11
-400.0
21
1300.0
31
280.38477
12
-400.0
22
900.0
32
280.38477
13
-399.9999
23
900.0001
33
280.38486
0
3DFACE
8
0
10
-400.0
20
900.0
30
-119.615234
11
-400.0
21
900.0
31
280.38477
12
-400.0
22
1300.0
32
280.38477
13
-399.9999
23
1300.0001
33
280.38486
0
3DFACE
8
0
10
-400.0
20
1300.0
30
280.38477
11
-400.0
21
1300.0
31
-119.615234
12
-400.0
22
900.0
32
-119.615234
13
-399.9999
23
900.0001
33
-119.615135
0
3DFACE
8
0
10
100.0
20
900.0
30
-119.615234
11
100.0
21
1300.0
31
-119.615234
12
100.0
22
1300.0
32
280.38477
13
100.0001
23
1300.0001
33
280.38486
0
3DFACE
8
0
10
100.0
20
1300.0
30
280.38477
11
100.0
21
900.0
31
280.38477
12
100.0
22
900.0
32
-119.615234
13
100.0001
23
900.0001
33
-119.615135
0
3DFACE
8
0
10
-400.0
20
900.0
30
-119.615234
11
100.0
21
900.0
31
-119.615234
12
100.0
22
900.0
32
280.38477
13
100.0001
23
900.0001
33
280.38486
0
3DFACE
8
0
10
100.0
20
900.0
30
280.38477
11
-400.0
21
900.0
31
280.38477
12
-400.0
22
900.0
32
-119.615234
13
-399.9999
23
900.0001
33
-119.615135
0
3DFACE
8
0
10
-400.0
20
1300.0
30
-119.615234
11
100.0
21
1300.0
31
-119.615234
12
100.0
22
1300.0
32
280.38477
13
100.0001
23
1300.0001
33
280.38486
0
3DFACE
8
0
10
100.0
20
1300.0
30
280.38477
11
-400.0
21
1300.0
31
280.38477
12
-400.0
22
1300.0
32
-119.615234
13
-399.9999
23
1300.0001
33
-119.615135
0
3DFACE
8
0
10
600.0
20
900.0
30
20.384766
11
800.0
21
900.0
31
20.384766
12
800.0
22
1300.0
32
20.384766
13
800.0001
23
1300.0001
33
20.384865
0
3DFACE
8
0
10
800.0
20
1300.0
30
20.384766
11
600.0
21
1300.0
31
20.384766
12
600.0
22
900.0
32
20.384766
13
600.0001
23
900.0001
33
20.384865
0
3DFACE
8
0
10
600.0
20
900.0
30
200.38477
11
800.0
21
900.0
31
200.38477
12
800.0
22
1300.0
32
200.38477
13
800.0001
23
1300.0001
33
200.38487
0
3DFACE
8
0
10
800.0
20
1300.0
30
200.38477
11
600.0
21
1300.0
31
200.38477
12
600.0
22
900.0
32
200.38477
13
600.0001
23
900.0001
33
200.38487
0
3DFACE
8
0
10
600.0
20
900.0
30
20.384766
11
600.0
21
900.0
31
200.38477
12
600.0
22
1300.0
32
200.38477
13
600.0001
23
1300.0001
33
200.38487
0
3DFACE
8
0
10
600.0
20
1300.0
30
200.38477
11
600.0
21
1300.0
31
20.384766
12
600.0
22
900.0
32
20.384766
13
600.0001
23
900.0001
33
20.384865
0
3DFACE
8
0
10
800.0
20
900.0
30
20.384766
11
800.0
21
1300.0
31
20.384766
12
800.0
22
1300.0
32
200.38477
13
800.0001
23
1300.0001
33
200.38487
0
3DFACE
8
0
10
800.0
20
1300.0
30
200.38477
11
800.0
21
900.0
31
200.38477
12
800.0
22
900.0
32
20.384766
13
800.0001
23
900.0001
33
20.384865
0
3DFACE
8
0
10
600.0
20
900.0
30
20.384766
11
800.0
21
900.0
31
20.384766
12
800.0
22
900.0
32
200.38477
13
800.0001
23
900.0001
33
200.38487
0
3DFACE
8
0
10
800.0
20
900.0
30
200.38477
11
600.0
21
900.0
31
200.38477
12
600.0
22
900.0
32
20.384766
13
600.0001
23
900.0001
33
20.384865
0
3DFACE
8
0
10
600.0
20
1300.0
30
20.384766
11
800.0
21
1300.0
31
20.384766
12
800.0
22
1300.0
32
200.38477
13
800.0001
23
1300.0001
33
200.38487
0
3DFACE
8
0
10
800.0
20
1300.0
30
200.38477
11
600.0
21
1300.0
31
200.38477
12
600.0
22
1300.0
32
20.384766
13
600.0001
23
1300.0001
33
20.384865
0
3DFACE
8
0
10
-400.0
20
1300.0
30
-519.61523
11
0.0
21
1300.0
31
-519.61523
12
0.0
22
1460.0
32
-519.61523
13
1.0E-4
23
1460.0001
33
-519.6151
0
3DFACE
8
0
10
0.0
20
1460.0
30
-519.61523
11
-400.0
21
1460.0
31
-519.61523
12
-400.0
22
1300.0
32
-519.61523
13
-399.9999
23
1300.0001
33
-519.6151
0
3DFACE
8
0
10
-400.0
20
1300.0
30
-199.61523
11
0.0
21
1300.0
31
-199.61523
12
0.0
22
1460.0
32
-199.61523
13
1.0E-4
23
1460.0001
33
-199.61513
0
3DFACE
8
0
10
0.0
20
1460.0
30
-199.61523
11
-400.0
21
1460.0
31
-199.61523
12
-400.0
22
1300.0
32
-199.61523
13
-399.9999
23
1300.0001
33
-199.61513
0
3DFACE
8
0
10
-400.0
20
1300.0
30
-519.61523
11
-400.0
21
1300.0
31
-199.61523
12
-400.0
22
1460.0
32
-199.61523
13
-399.9999
23
1460.0001
33
-199.61513
0
3DFACE
8
0
10
-400.0
20
1460.0
30
-199.61523
11
-400.0
21
1460.0
31
-519.61523
12
-400.0
22
1300.0
32
-519.61523
13
-399.9999
23
1300.0001
33
-519.6151
0
3DFACE
8
0
10
0.0
20
1300.0
30
-519.61523
11
0.0
21
1460.0
31
-519.61523
12
0.0
22
1460.0
32
-199.61523
13
1.0E-4
23
1460.0001
33
-199.61513
0
3DFACE
8
0
10
0.0
20
1460.0
30
-199.61523
11
0.0
21
1300.0
31
-199.61523
12
0.0
22
1300.0
32
-519.61523
13
1.0E-4
23
1300.0001
33
-519.6151
0
3DFACE
8
0
10
-400.0
20
1300.0
30
-519.61523
11
0.0
21
1300.0
31
-519.61523
12
0.0
22
1300.0
32
-199.61523
13
1.0E-4
23
1300.0001
33
-199.61513
0
3DFACE
8
0
10
0.0
20
1300.0
30
-199.61523
11
-400.0
21
1300.0
31
-199.61523
12
-400.0
22
1300.0
32
-519.61523
13
-399.9999
23
1300.0001
33
-519.6151
0
3DFACE
8
0
10
-400.0
20
1460.0
30
-519.61523
11
0.0
21
1460.0
31
-519.61523
12
0.0
22
1460.0
32
-199.61523
13
1.0E-4
23
1460.0001
33
-199.61513
0
3DFACE
8
0
10
0.0
20
1460.0
30
-199.61523
11
-400.0
21
1460.0
31
-199.61523
12
-400.0
22
1460.0
32
-519.61523
13
-399.9999
23
1460.0001
33
-519.6151
0
3DFACE
8
0
10
0.0
20
1300.0
30
-519.61523
11
400.0
21
1300.0
31
-519.61523
12
400.0
22
1460.0
32
-519.61523
13
400.0001
23
1460.0001
33
-519.6151
0
3DFACE
8
0
10
400.0
20
1460.0
30
-519.61523
11
0.0
21
1460.0
31
-519.61523
12
0.0
22
1300.0
32
-519.61523
13
1.0E-4
23
1300.0001
33
-519.6151
0
3DFACE
8
0
10
0.0
20
1300.0
30
-199.61523
11
400.0
21
1300.0
31
-199.61523
12
400.0
22
1460.0
32
-199.61523
13
400.0001
23
1460.0001
33
-199.61513
0
3DFACE
8
0
10
400.0
20
1460.0
30
-199.61523
11
0.0
21
1460.0
31
-199.61523
12
0.0
22
1300.0
32
-199.61523
13
1.0E-4
23
1300.0001
33
-199.61513
0
3DFACE
8
0
10
0.0
20
1300.0
30
-519.61523
11
0.0
21
1300.0
31
-199.61523
12
0.0
22
1460.0
32
-199.61523
13
1.0E-4
23
1460.0001
33
-199.61513
0
3DFACE
8
0
10
0.0
20
1460.0
30
-199.61523
11
0.0
21
1460.0
31
-519.61523
12
0.0
22
1300.0
32
-519.61523
13
1.0E-4
23
1300.0001
33
-519.6151
0
3DFACE
8
0
10
400.0
20
1300.0
30
-519.61523
11
400.0
21
1460.0
31
-519.61523
12
400.0
22
1460.0
32
-199.61523
13
400.0001
23
1460.0001
33
-199.61513
0
3DFACE
8
0
10
400.0
20
1460.0
30
-199.61523
11
400.0
21
1300.0
31
-199.61523
12
400.0
22
1300.0
32
-519.61523
13
400.0001
23
1300.0001
33
-519.6151
0
3DFACE
8
0
10
0.0
20
1300.0
30
-519.61523
11
400.0
21
1300.0
31
-519.61523
12
400.0
22
1300.0
32
-199.61523
13
400.0001
23
1300.0001
33
-199.61513
0
3DFACE
8
0
10
400.0
20
1300.0
30
-199.61523
11
0.0
21
1300.0
31
-199.61523
12
0.0
22
1300.0
32
-519.61523
13
1.0E-4
23
1300.0001
33
-519.6151
0
3DFACE
8
0
10
0.0
20
1460.0
30
-519.61523
11
400.0
21
1460.0
31
-519.61523
12
400.0
22
1460.0
32
-199.61523
13
400.0001
23
1460.0001
33
-199.61513
0
3DFACE
8
0
10
400.0
20
1460.0
30
-199.61523
11
0.0
21
1460.0
31
-199.61523
12
0.0
22
1460.0
32
-519.61523
13
1.0E-4
23
1460.0001
33
-519.6151
0
3DFACE
8
0
10
400.0
20
1300.0
30
-519.61523
11
800.0
21
1300.0
31
-519.61523
12
800.0
22
1460.0
32
-519.61523
13
800.0001
23
1460.0001
33
-519.6151
0
3DFACE
8
0
10
800.0
20
1460.0
30
-519.61523
11
400.0
21
1460.0
31
-519.61523
12
400.0
22
1300.0
32
-519.61523
13
400.0001
23
1300.0001
33
-519.6151
0
3DFACE
8
0
10
400.0
20
1300.0
30
-199.61523
11
800.0
21
1300.0
31
-199.61523
12
800.0
22
1460.0
32
-199.61523
13
800.0001
23
1460.0001
33
-199.61513
0
3DFACE
8
0
10
800.0
20
1460.0
30
-199.61523
11
400.0
21
1460.0
31
-199.61523
12
400.0
22
1300.0
32
-199.61523
13
400.0001
23
1300.0001
33
-199.61513
0
3DFACE
8
0
10
400.0
20
1300.0
30
-519.61523
11
400.0
21
1300.0
31
-199.61523
12
400.0
22
1460.0
32
-199.61523
13
400.0001
23
1460.0001
33
-199.61513
0
3DFACE
8
0
10
400.0
20
1460.0
30
-199.61523
11
400.0
21
1460.0
31
-519.61523
12
400.0
22
1300.0
32
-519.61523
13
400.0001
23
1300.0001
33
-519.6151
0
3DFACE
8
0
10
800.0
20
1300.0
30
-519.61523
11
800.0
21
1460.0
31
-519.61523
12
800.0
22
1460.0
32
-199.61523
13
800.0001
23
1460.0001
33
-199.61513
0
3DFACE
8
0
10
800.0
20
1460.0
30
-199.61523
11
800.0
21
1300.0
31
-199.61523
12
800.0
22
1300.0
32
-519.61523
13
800.0001
23
1300.0001
33
-519.6151
0
3DFACE
8
0
10
400.0
20
1300.0
30
-519.61523
11
800.0
21
1300.0
31
-519.61523
12
800.0
22
1300.0
32
-199.61523
13
800.0001
23
1300.0001
33
-199.61513
0
3DFACE
8
0
10
800.0
20
1300.0
30
-199.61523
11
400.0
21
1300.0
31
-199.61523
12
400.0
22
1300.0
32
-519.61523
13
400.0001
23
1300.0001
33
-519.6151
0
3DFACE
8
0
10
400.0
20
1460.0
30
-519.61523
11
800.0
21
1460.0
31
-519.61523
12
800.0
22
1460.0
32
-199.61523
13
800.0001
23
1460.0001
33
-199.61513
0
3DFACE
8
0
10
800.0
20
1460.0
30
-199.61523
11
400.0
21
1460.0
31
-199.61523
12
400.0
22
1460.0
32
-519.61523
13
400.0001
23
1460.0001
33
-519.6151
0
3DFACE
8
0
10
-400.0
20
1300.0
30
-199.61523
11
0.0
21
1300.0
31
-199.61523
12
0.0
22
1460.0
32
-199.61523
13
1.0E-4
23
1460.0001
33
-199.61513
0
3DFACE
8
0
10
0.0
20
1460.0
30
-199.61523
11
-400.0
21
1460.0
31
-199.61523
12
-400.0
22
1300.0
32
-199.61523
13
-399.9999
23
1300.0001
33
-199.61513
0
3DFACE
8
0
10
-400.0
20
1300.0
30
120.384766
11
0.0
21
1300.0
31
120.384766
12
0.0
22
1460.0
32
120.384766
13
1.0E-4
23
1460.0001
33
120.384865
0
3DFACE
8
0
10
0.0
20
1460.0
30
120.384766
11
-400.0
21
1460.0
31
120.384766
12
-400.0
22
1300.0
32
120.384766
13
-399.9999
23
1300.0001
33
120.384865
0
3DFACE
8
0
10
-400.0
20
1300.0
30
-199.61523
11
-400.0
21
1300.0
31
120.384766
12
-400.0
22
1460.0
32
120.384766
13
-399.9999
23
1460.0001
33
120.384865
0
3DFACE
8
0
10
-400.0
20
1460.0
30
120.384766
11
-400.0
21
1460.0
31
-199.61523
12
-400.0
22
1300.0
32
-199.61523
13
-399.9999
23
1300.0001
33
-199.61513
0
3DFACE
8
0
10
0.0
20
1300.0
30
-199.61523
11
0.0
21
1460.0
31
-199.61523
12
0.0
22
1460.0
32
120.384766
13
1.0E-4
23
1460.0001
33
120.384865
0
3DFACE
8
0
10
0.0
20
1460.0
30
120.384766
11
0.0
21
1300.0
31
120.384766
12
0.0
22
1300.0
32
-199.61523
13
1.0E-4
23
1300.0001
33
-199.61513
0
3DFACE
8
0
10
-400.0
20
1300.0
30
-199.61523
11
0.0
21
1300.0
31
-199.61523
12
0.0
22
1300.0
32
120.384766
13
1.0E-4
23
1300.0001
33
120.384865
0
3DFACE
8
0
10
0.0
20
1300.0
30
120.384766
11
-400.0
21
1300.0
31
120.384766
12
-400.0
22
1300.0
32
-199.61523
13
-399.9999
23
1300.0001
33
-199.61513
0
3DFACE
8
0
10
-400.0
20
1460.0
30
-199.61523
11
0.0
21
1460.0
31
-199.61523
12
0.0
22
1460.0
32
120.384766
13
1.0E-4
23
1460.0001
33
120.384865
0
3DFACE
8
0
10
0.0
20
1460.0
30
120.384766
11
-400.0
21
1460.0
31
120.384766
12
-400.0
22
1460.0
32
-199.61523
13
-399.9999
23
1460.0001
33
-199.61513
0
3DFACE
8
0
10
0.0
20
1300.0
30
-199.61523
11
400.0
21
1300.0
31
-199.61523
12
400.0
22
1460.0
32
-199.61523
13
400.0001
23
1460.0001
33
-199.61513
0
3DFACE
8
0
10
400.0
20
1460.0
30
-199.61523
11
0.0
21
1460.0
31
-199.61523
12
0.0
22
1300.0
32
-199.61523
13
1.0E-4
23
1300.0001
33
-199.61513
0
3DFACE
8
0
10
0.0
20
1300.0
30
120.384766
11
400.0
21
1300.0
31
120.384766
12
400.0
22
1460.0
32
120.384766
13
400.0001
23
1460.0001
33
120.384865
0
3DFACE
8
0
10
400.0
20
1460.0
30
120.384766
11
0.0
21
1460.0
31
120.384766
12
0.0
22
1300.0
32
120.384766
13
1.0E-4
23
1300.0001
33
120.384865
0
3DFACE
8
0
10
0.0
20
1300.0
30
-199.61523
11
0.0
21
1300.0
31
120.384766
12
0.0
22
1460.0
32
120.384766
13
1.0E-4
23
1460.0001
33
120.384865
0
3DFACE
8
0
10
0.0
20
1460.0
30
120.384766
11
0.0
21
1460.0
31
-199.61523
12
0.0
22
1300.0
32
-199.61523
13
1.0E-4
23
1300.0001
33
-199.61513
0
3DFACE
8
0
10
400.0
20
1300.0
30
-199.61523
11
400.0
21
1460.0
31
-199.61523
12
400.0
22
1460.0
32
120.384766
13
400.0001
23
1460.0001
33
120.384865
0
3DFACE
8
0
10
400.0
20
1460.0
30
120.384766
11
400.0
21
1300.0
31
120.384766
12
400.0
22
1300.0
32
-199.61523
13
400.0001
23
1300.0001
33
-199.61513
0
3DFACE
8
0
10
0.0
20
1300.0
30
-199.61523
11
400.0
21
1300.0
31
-199.61523
12
400.0
22
1300.0
32
120.384766
13
400.0001
23
1300.0001
33
120.384865
0
3DFACE
8
0
10
400.0
20
1300.0
30
120.384766
11
0.0
21
1300.0
31
120.384766
12
0.0
22
1300.0
32
-199.61523
13
1.0E-4
23
1300.0001
33
-199.61513
0
3DFACE
8
0
10
0.0
20
1460.0
30
-199.61523
11
400.0
21
1460.0
31
-199.61523
12
400.0
22
1460.0
32
120.384766
13
400.0001
23
1460.0001
33
120.384865
0
3DFACE
8
0
10
400.0
20
1460.0
30
120.384766
11
0.0
21
1460.0
31
120.384766
12
0.0
22
1460.0
32
-199.61523
13
1.0E-4
23
1460.0001
33
-199.61513
0
3DFACE
8
0
10
400.0
20
1300.0
30
-199.61523
11
800.0
21
1300.0
31
-199.61523
12
800.0
22
1460.0
32
-199.61523
13
800.0001
23
1460.0001
33
-199.61513
0
3DFACE
8
0
10
800.0
20
1460.0
30
-199.61523
11
400.0
21
1460.0
31
-199.61523
12
400.0
22
1300.0
32
-199.61523
13
400.0001
23
1300.0001
33
-199.61513
0
3DFACE
8
0
10
400.0
20
1300.0
30
120.384766
11
800.0
21
1300.0
31
120.384766
12
800.0
22
1460.0
32
120.384766
13
800.0001
23
1460.0001
33
120.384865
0
3DFACE
8
0
10
800.0
20
1460.0
30
120.384766
11
400.0
21
1460.0
31
120.384766
12
400.0
22
1300.0
32
120.384766
13
400.0001
23
1300.0001
33
120.384865
0
3DFACE
8
0
10
400.0
20
1300.0
30
-199.61523
11
400.0
21
1300.0
31
120.384766
12
400.0
22
1460.0
32
120.384766
13
400.0001
23
1460.0001
33
120.384865
0
3DFACE
8
0
10
400.0
20
1460.0
30
120.384766
11
400.0
21
1460.0
31
-199.61523
12
400.0
22
1300.0
32
-199.61523
13
400.0001
23
1300.0001
33
-199.61513
0
3DFACE
8
0
10
800.0
20
1300.0
30
-199.61523
11
800.0
21
1460.0
31
-199.61523
12
800.0
22
1460.0
32
120.384766
13
800.0001
23
1460.0001
33
120.384865
0
3DFACE
8
0
10
800.0
20
1460.0
30
120.384766
11
800.0
21
1300.0
31
120.384766
12
800.0
22
1300.0
32
-199.61523
13
800.0001
23
1300.0001
33
-199.61513
0
3DFACE
8
0
10
400.0
20
1300.0
30
-199.61523
11
800.0
21
1300.0
31
-199.61523
12
800.0
22
1300.0
32
120.384766
13
800.0001
23
1300.0001
33
120.384865
0
3DFACE
8
0
10
800.0
20
1300.0
30
120.384766
11
400.0
21
1300.0
31
120.384766
12
400.0
22
1300.0
32
-199.61523
13
400.0001
23
1300.0001
33
-199.61513
0
3DFACE
8
0
10
400.0
20
1460.0
30
-199.61523
11
800.0
21
1460.0
31
-199.61523
12
800.0
22
1460.0
32
120.384766
13
800.0001
23
1460.0001
33
120.384865
0
3DFACE
8
0
10
800.0
20
1460.0
30
120.384766
11
400.0
21
1460.0
31
120.384766
12
400.0
22
1460.0
32
-199.61523
13
400.0001
23
1460.0001
33
-199.61513
0
LINE
8
0
10
-400.0
20
-300.0
30
-519.61523
11
200.0
21
-300.0
31
-519.61523
0
LINE
8
0
10
200.0
20
-300.0
30
-519.61523
11
200.0
21
100.0
31
-519.61523
0
LINE
8
0
10
200.0
20
100.0
30
-519.61523
11
-400.0
21
100.0
31
-519.61523
0
LINE
8
0
10
-400.0
20
100.0
30
-519.61523
11
-400.0
21
-300.0
31
-519.61523
0
LINE
8
0
10
-400.0
20
-300.0
30
-119.615234
11
200.0
21
-300.0
31
-119.615234
0
LINE
8
0
10
200.0
20
-300.0
30
-119.615234
11
200.0
21
100.0
31
-119.615234
0
LINE
8
0
10
200.0
20
100.0
30
-119.615234
11
-400.0
21
100.0
31
-119.615234
0
LINE
8
0
10
-400.0
20
100.0
30
-119.615234
11
-400.0
21
-300.0
31
-119.615234
0
LINE
8
0
10
-400.0
20
-300.0
30
-519.61523
11
-400.0
21
-300.0
31
-119.615234
0
LINE
8
0
10
-400.0
20
-300.0
30
-119.615234
11
-400.0
21
100.0
31
-119.615234
0
LINE
8
0
10
-400.0
20
100.0
30
-119.615234
11
-400.0
21
100.0
31
-519.61523
0
LINE
8
0
10
-400.0
20
100.0
30
-519.61523
11
-400.0
21
-300.0
31
-519.61523
0
LINE
8
0
10
200.0
20
-300.0
30
-519.61523
11
200.0
21
100.0
31
-519.61523
0
LINE
8
0
10
200.0
20
100.0
30
-519.61523
11
200.0
21
100.0
31
-119.615234
0
LINE
8
0
10
200.0
20
100.0
30
-119.615234
11
200.0
21
-300.0
31
-119.615234
0
LINE
8
0
10
200.0
20
-300.0
30
-119.615234
11
200.0
21
-300.0
31
-519.61523
0
LINE
8
0
10
-400.0
20
-300.0
30
-519.61523
11
200.0
21
-300.0
31
-519.61523
0
LINE
8
0
10
200.0
20
-300.0
30
-519.61523
11
200.0
21
-300.0
31
-119.615234
0
LINE
8
0
10
200.0
20
-300.0
30
-119.615234
11
-400.0
21
-300.0
31
-119.615234
0
LINE
8
0
10
-400.0
20
-300.0
30
-119.615234
11
-400.0
21
-300.0
31
-519.61523
0
LINE
8
0
10
-400.0
20
100.0
30
-519.61523
11
200.0
21
100.0
31
-519.61523
0
LINE
8
0
10
200.0
20
100.0
30
-519.61523
11
200.0
21
100.0
31
-119.615234
0
LINE
8
0
10
200.0
20
100.0
30
-119.615234
11
-400.0
21
100.0
31
-119.615234
0
LINE
8
0
10
-400.0
20
100.0
30
-119.615234
11
-400.0
21
100.0
31
-519.61523
0
LINE
8
0
10
200.0
20
-300.0
30
-519.61523
11
800.0
21
-300.0
31
-519.61523
0
LINE
8
0
10
800.0
20
-300.0
30
-519.61523
11
800.0
21
100.0
31
-519.61523
0
LINE
8
0
10
800.0
20
100.0
30
-519.61523
11
200.0
21
100.0
31
-519.61523
0
LINE
8
0
10
200.0
20
100.0
30
-519.61523
11
200.0
21
-300.0
31
-519.61523
0
LINE
8
0
10
200.0
20
-300.0
30
-119.615234
11
800.0
21
-300.0
31
-119.615234
0
LINE
8
0
10
800.0
20
-300.0
30
-119.615234
11
800.0
21
100.0
31
-119.615234
0
LINE
8
0
10
800.0
20
100.0
30
-119.615234
11
200.0
21
100.0
31
-119.615234
0
LINE
8
0
10
200.0
20
100.0
30
-119.615234
11
200.0
21
-300.0
31
-119.615234
0
LINE
8
0
10
200.0
20
-300.0
30
-519.61523
11
200.0
21
-300.0
31
-119.615234
0
LINE
8
0
10
200.0
20
-300.0
30
-119.615234
11
200.0
21
100.0
31
-119.615234
0
LINE
8
0
10
200.0
20
100.0
30
-119.615234
11
200.0
21
100.0
31
-519.61523
0
LINE
8
0
10
200.0
20
100.0
30
-519.61523
11
200.0
21
-300.0
31
-519.61523
0
LINE
8
0
10
800.0
20
-300.0
30
-519.61523
11
800.0
21
100.0
31
-519.61523
0
LINE
8
0
10
800.0
20
100.0
30
-519.61523
11
800.0
21
100.0
31
-119.615234
0
LINE
8
0
10
800.0
20
100.0
30
-119.615234
11
800.0
21
-300.0
31
-119.615234
0
LINE
8
0
10
800.0
20
-300.0
30
-119.615234
11
800.0
21
-300.0
31
-519.61523
0
LINE
8
0
10
200.0
20
-300.0
30
-519.61523
11
800.0
21
-300.0
31
-519.61523
0
LINE
8
0
10
800.0
20
-300.0
30
-519.61523
11
800.0
21
-300.0
31
-119.615234
0
LINE
8
0
10
800.0
20
-300.0
30
-119.615234
11
200.0
21
-300.0
31
-119.615234
0
LINE
8
0
10
200.0
20
-300.0
30
-119.615234
11
200.0
21
-300.0
31
-519.61523
0
LINE
8
0
10
200.0
20
100.0
30
-519.61523
11
800.0
21
100.0
31
-519.61523
0
LINE
8
0
10
800.0
20
100.0
30
-519.61523
11
800.0
21
100.0
31
-119.615234
0
LINE
8
0
10
800.0
20
100.0
30
-119.615234
11
200.0
21
100.0
31
-119.615234
0
LINE
8
0
10
200.0
20
100.0
30
-119.615234
11
200.0
21
100.0
31
-519.61523
0
LINE
8
0
10
-400.0
20
-300.0
30
-119.615234
11
200.0
21
-300.0
31
-119.615234
0
LINE
8
0
10
200.0
20
-300.0
30
-119.615234
11
200.0
21
100.0
31
-119.615234
0
LINE
8
0
10
200.0
20
100.0
30
-119.615234
11
-400.0
21
100.0
31
-119.615234
0
LINE
8
0
10
-400.0
20
100.0
30
-119.615234
11
-400.0
21
-300.0
31
-119.615234
0
LINE
8
0
10
-400.0
20
-300.0
30
280.38477
11
200.0
21
-300.0
31
280.38477
0
LINE
8
0
10
200.0
20
-300.0
30
280.38477
11
200.0
21
100.0
31
280.38477
0
LINE
8
0
10
200.0
20
100.0
30
280.38477
11
-400.0
21
100.0
31
280.38477
0
LINE
8
0
10
-400.0
20
100.0
30
280.38477
11
-400.0
21
-300.0
31
280.38477
0
LINE
8
0
10
-400.0
20
-300.0
30
-119.615234
11
-400.0
21
-300.0
31
280.38477
0
LINE
8
0
10
-400.0
20
-300.0
30
280.38477
11
-400.0
21
100.0
31
280.38477
0
LINE
8
0
10
-400.0
20
100.0
30
280.38477
11
-400.0
21
100.0
31
-119.615234
0
LINE
8
0
10
-400.0
20
100.0
30
-119.615234
11
-400.0
21
-300.0
31
-119.615234
0
LINE
8
0
10
200.0
20
-300.0
30
-119.615234
11
200.0
21
100.0
31
-119.615234
0
LINE
8
0
10
200.0
20
100.0
30
-119.615234
11
200.0
21
100.0
31
280.38477
0
LINE
8
0
10
200.0
20
100.0
30
280.38477
11
200.0
21
-300.0
31
280.38477
0
LINE
8
0
10
200.0
20
-300.0
30
280.38477
11
200.0
21
-300.0
31
-119.615234
0
LINE
8
0
10
-400.0
20
-300.0
30
-119.615234
11
200.0
21
-300.0
31
-119.615234
0
LINE
8
0
10
200.0
20
-300.0
30
-119.615234
11
200.0
21
-300.0
31
280.38477
0
LINE
8
0
10
200.0
20
-300.0
30
280.38477
11
-400.0
21
-300.0
31
280.38477
0
LINE
8
0
10
-400.0
20
-300.0
30
280.38477
11
-400.0
21
-300.0
31
-119.615234
0
LINE
8
0
10
-400.0
20
100.0
30
-119.615234
11
200.0
21
100.0
31
-119.615234
0
LINE
8
0
10
200.0
20
100.0
30
-119.615234
11
200.0
21
100.0
31
280.38477
0
LINE
8
0
10
200.0
20
100.0
30
280.38477
11
-400.0
21
100.0
31
280.38477
0
LINE
8
0
10
-400.0
20
100.0
30
280.38477
11
-400.0
21
100.0
31
-119.615234
0
LINE
8
0
10
200.0
20
-300.0
30
-119.615234
11
800.0
21
-300.0
31
-119.615234
0
LINE
8
0
10
800.0
20
-300.0
30
-119.615234
11
800.0
21
100.0
31
-119.615234
0
LINE
8
0
10
800.0
20
100.0
30
-119.615234
11
200.0
21
100.0
31
-119.615234
0
LINE
8
0
10
200.0
20
100.0
30
-119.615234
11
200.0
21
-300.0
31
-119.615234
0
LINE
8
0
10
200.0
20
-300.0
30
280.38477
11
800.0
21
-300.0
31
280.38477
0
LINE
8
0
10
800.0
20
-300.0
30
280.38477
11
800.0
21
100.0
31
280.38477
0
LINE
8
0
10
800.0
20
100.0
30
280.38477
11
200.0
21
100.0
31
280.38477
0
LINE
8
0
10
200.0
20
100.0
30
280.38477
11
200.0
21
-300.0
31
280.38477
0
LINE
8
0
10
200.0
20
-300.0
30
-119.615234
11
200.0
21
-300.0
31
280.38477
0
LINE
8
0
10
200.0
20
-300.0
30
280.38477
11
200.0
21
100.0
31
280.38477
0
LINE
8
0
10
200.0
20
100.0
30
280.38477
11
200.0
21
100.0
31
-119.615234
0
LINE
8
0
10
200.0
20
100.0
30
-119.615234
11
200.0
21
-300.0
31
-119.615234
0
LINE
8
0
10
800.0
20
-300.0
30
-119.615234
11
800.0
21
100.0
31
-119.615234
0
LINE
8
0
10
800.0
20
100.0
30
-119.615234
11
800.0
21
100.0
31
280.38477
0
LINE
8
0
10
800.0
20
100.0
30
280.38477
11
800.0
21
-300.0
31
280.38477
0
LINE
8
0
10
800.0
20
-300.0
30
280.38477
11
800.0
21
-300.0
31
-119.615234
0
LINE
8
0
10
200.0
20
-300.0
30
-119.615234
11
800.0
21
-300.0
31
-119.615234
0
LINE
8
0
10
800.0
20
-300.0
30
-119.615234
11
800.0
21
-300.0
31
280.38477
0
LINE
8
0
10
800.0
20
-300.0
30
280.38477
11
200.0
21
-300.0
31
280.38477
0
LINE
8
0
10
200.0
20
-300.0
30
280.38477
11
200.0
21
-300.0
31
-119.615234
0
LINE
8
0
10
200.0
20
100.0
30
-119.615234
11
800.0
21
100.0
31
-119.615234
0
LINE
8
0
10
800.0
20
100.0
30
-119.615234
11
800.0
21
100.0
31
280.38477
0
LINE
8
0
10
800.0
20
100.0
30
280.38477
11
200.0
21
100.0
31
280.38477
0
LINE
8
0
10
200.0
20
100.0
30
280.38477
11
200.0
21
100.0
31
-119.615234
0
LINE
8
0
10
-400.0
20
100.0
30
-519.61523
11
200.0
21
100.0
31
-519.61523
0
LINE
8
0
10
200.0
20
100.0
30
-519.61523
11
200.0
21
500.0
31
-519.61523
0
LINE
8
0
10
200.0
20
500.0
30
-519.61523
11
-400.0
21
500.0
31
-519.61523
0
LINE
8
0
10
-400.0
20
500.0
30
-519.61523
11
-400.0
21
100.0
31
-519.61523
0
LINE
8
0
10
-400.0
20
100.0
30
-119.615234
11
200.0
21
100.0
31
-119.615234
0
LINE
8
0
10
200.0
20
100.0
30
-119.615234
11
200.0
21
500.0
31
-119.615234
0
LINE
8
0
10
200.0
20
500.0
30
-119.615234
11
-400.0
21
500.0
31
-119.615234
0
LINE
8
0
10
-400.0
20
500.0
30
-119.615234
11
-400.0
21
100.0
31
-119.615234
0
LINE
8
0
10
-400.0
20
100.0
30
-519.61523
11
-400.0
21
100.0
31
-119.615234
0
LINE
8
0
10
-400.0
20
100.0
30
-119.615234
11
-400.0
21
500.0
31
-119.615234
0
LINE
8
0
10
-400.0
20
500.0
30
-119.615234
11
-400.0
21
500.0
31
-519.61523
0
LINE
8
0
10
-400.0
20
500.0
30
-519.61523
11
-400.0
21
100.0
31
-519.61523
0
LINE
8
0
10
200.0
20
100.0
30
-519.61523
11
200.0
21
500.0
31
-519.61523
0
LINE
8
0
10
200.0
20
500.0
30
-519.61523
11
200.0
21
500.0
31
-119.615234
0
LINE
8
0
10
200.0
20
500.0
30
-119.615234
11
200.0
21
100.0
31
-119.615234
0
LINE
8
0
10
200.0
20
100.0
30
-119.615234
11
200.0
21
100.0
31
-519.61523
0
LINE
8
0
10
-400.0
20
100.0
30
-519.61523
11
200.0
21
100.0
31
-519.61523
0
LINE
8
0
10
200.0
20
100.0
30
-519.61523
11
200.0
21
100.0
31
-119.615234
0
LINE
8
0
10
200.0
20
100.0
30
-119.615234
11
-400.0
21
100.0
31
-119.615234
0
LINE
8
0
10
-400.0
20
100.0
30
-119.615234
11
-400.0
21
100.0
31
-519.61523
0
LINE
8
0
10
-400.0
20
500.0
30
-519.61523
11
200.0
21
500.0
31
-519.61523
0
LINE
8
0
10
200.0
20
500.0
30
-519.61523
11
200.0
21
500.0
31
-119.615234
0
LINE
8
0
10
200.0
20
500.0
30
-119.615234
11
-400.0
21
500.0
31
-119.615234
0
LINE
8
0
10
-400.0
20
500.0
30
-119.615234
11
-400.0
21
500.0
31
-519.61523
0
LINE
8
0
10
200.0
20
100.0
30
-519.61523
11
800.0
21
100.0
31
-519.61523
0
LINE
8
0
10
800.0
20
100.0
30
-519.61523
11
800.0
21
500.0
31
-519.61523
0
LINE
8
0
10
800.0
20
500.0
30
-519.61523
11
200.0
21
500.0
31
-519.61523
0
LINE
8
0
10
200.0
20
500.0
30
-519.61523
11
200.0
21
100.0
31
-519.61523
0
LINE
8
0
10
200.0
20
100.0
30
-119.615234
11
800.0
21
100.0
31
-119.615234
0
LINE
8
0
10
800.0
20
100.0
30
-119.615234
11
800.0
21
500.0
31
-119.615234
0
LINE
8
0
10
800.0
20
500.0
30
-119.615234
11
200.0
21
500.0
31
-119.615234
0
LINE
8
0
10
200.0
20
500.0
30
-119.615234
11
200.0
21
100.0
31
-119.615234
0
LINE
8
0
10
200.0
20
100.0
30
-519.61523
11
200.0
21
100.0
31
-119.615234
0
LINE
8
0
10
200.0
20
100.0
30
-119.615234
11
200.0
21
500.0
31
-119.615234
0
LINE
8
0
10
200.0
20
500.0
30
-119.615234
11
200.0
21
500.0
31
-519.61523
0
LINE
8
0
10
200.0
20
500.0
30
-519.61523
11
200.0
21
100.0
31
-519.61523
0
LINE
8
0
10
800.0
20
100.0
30
-519.61523
11
800.0
21
500.0
31
-519.61523
0
LINE
8
0
10
800.0
20
500.0
30
-519.61523
11
800.0
21
500.0
31
-119.615234
0
LINE
8
0
10
800.0
20
500.0
30
-119.615234
11
800.0
21
100.0
31
-119.615234
0
LINE
8
0
10
800.0
20
100.0
30
-119.615234
11
800.0
21
100.0
31
-519.61523
0
LINE
8
0
10
200.0
20
100.0
30
-519.61523
11
800.0
21
100.0
31
-519.61523
0
LINE
8
0
10
800.0
20
100.0
30
-519.61523
11
800.0
21
100.0
31
-119.615234
0
LINE
8
0
10
800.0
20
100.0
30
-119.615234
11
200.0
21
100.0
31
-119.615234
0
LINE
8
0
10
200.0
20
100.0
30
-119.615234
11
200.0
21
100.0
31
-519.61523
0
LINE
8
0
10
200.0
20
500.0
30
-519.61523
11
800.0
21
500.0
31
-519.61523
0
LINE
8
0
10
800.0
20
500.0
30
-519.61523
11
800.0
21
500.0
31
-119.615234
0
LINE
8
0
10
800.0
20
500.0
30
-119.615234
11
200.0
21
500.0
31
-119.615234
0
LINE
8
0
10
200.0
20
500.0
30
-119.615234
11
200.0
21
500.0
31
-519.61523
0
LINE
8
0
10
-400.0
20
100.0
30
-119.615234
11
200.0
21
100.0
31
-119.615234
0
LINE
8
0
10
200.0
20
100.0
30
-119.615234
11
200.0
21
500.0
31
-119.615234
0
LINE
8
0
10
200.0
20
500.0
30
-119.615234
11
-400.0
21
500.0
31
-119.615234
0
LINE
8
0
10
-400.0
20
500.0
30
-119.615234
11
-400.0
21
100.0
31
-119.615234
0
LINE
8
0
10
-400.0
20
100.0
30
280.38477
11
200.0
21
100.0
31
280.38477
0
LINE
8
0
10
200.0
20
100.0
30
280.38477
11
200.0
21
500.0
31
280.38477
0
LINE
8
0
10
200.0
20
500.0
30
280.38477
11
-400.0
21
500.0
31
280.38477
0
LINE
8
0
10
-400.0
20
500.0
30
280.38477
11
-400.0
21
100.0
31
280.38477
0
LINE
8
0
10
-400.0
20
100.0
30
-119.615234
11
-400.0
21
100.0
31
280.38477
0
LINE
8
0
10
-400.0
20
100.0
30
280.38477
11
-400.0
21
500.0
31
280.38477
0
LINE
8
0
10
-400.0
20
500.0
30
280.38477
11
-400.0
21
500.0
31
-119.615234
0
LINE
8
0
10
-400.0
20
500.0
30
-119.615234
11
-400.0
21
100.0
31
-119.615234
0
LINE
8
0
10
200.0
20
100.0
30
-119.615234
11
200.0
21
500.0
31
-119.615234
0
LINE
8
0
10
200.0
20
500.0
30
-119.615234
11
200.0
21
500.0
31
280.38477
0
LINE
8
0
10
200.0
20
500.0
30
280.38477
11
200.0
21
100.0
31
280.38477
0
LINE
8
0
10
200.0
20
100.0
30
280.38477
11
200.0
21
100.0
31
-119.615234
0
LINE
8
0
10
-400.0
20
100.0
30
-119.615234
11
200.0
21
100.0
31
-119.615234
0
LINE
8
0
10
200.0
20
100.0
30
-119.615234
11
200.0
21
100.0
31
280.38477
0
LINE
8
0
10
200.0
20
100.0
30
280.38477
11
-400.0
21
100.0
31
280.38477
0
LINE
8
0
10
-400.0
20
100.0
30
280.38477
11
-400.0
21
100.0
31
-119.615234
0
LINE
8
0
10
-400.0
20
500.0
30
-119.615234
11
200.0
21
500.0
31
-119.615234
0
LINE
8
0
10
200.0
20
500.0
30
-119.615234
11
200.0
21
500.0
31
280.38477
0
LINE
8
0
10
200.0
20
500.0
30
280.38477
11
-400.0
21
500.0
31
280.38477
0
LINE
8
0
10
-400.0
20
500.0
30
280.38477
11
-400.0
21
500.0
31
-119.615234
0
LINE
8
0
10
200.0
20
100.0
30
-119.615234
11
800.0
21
100.0
31
-119.615234
0
LINE
8
0
10
800.0
20
100.0
30
-119.615234
11
800.0
21
500.0
31
-119.615234
0
LINE
8
0
10
800.0
20
500.0
30
-119.615234
11
200.0
21
500.0
31
-119.615234
0
LINE
8
0
10
200.0
20
500.0
30
-119.615234
11
200.0
21
100.0
31
-119.615234
0
LINE
8
0
10
200.0
20
100.0
30
280.38477
11
800.0
21
100.0
31
280.38477
0
LINE
8
0
10
800.0
20
100.0
30
280.38477
11
800.0
21
500.0
31
280.38477
0
LINE
8
0
10
800.0
20
500.0
30
280.38477
11
200.0
21
500.0
31
280.38477
0
LINE
8
0
10
200.0
20
500.0
30
280.38477
11
200.0
21
100.0
31
280.38477
0
LINE
8
0
10
200.0
20
100.0
30
-119.615234
11
200.0
21
100.0
31
280.38477
0
LINE
8
0
10
200.0
20
100.0
30
280.38477
11
200.0
21
500.0
31
280.38477
0
LINE
8
0
10
200.0
20
500.0
30
280.38477
11
200.0
21
500.0
31
-119.615234
0
LINE
8
0
10
200.0
20
500.0
30
-119.615234
11
200.0
21
100.0
31
-119.615234
0
LINE
8
0
10
800.0
20
100.0
30
-119.615234
11
800.0
21
500.0
31
-119.615234
0
LINE
8
0
10
800.0
20
500.0
30
-119.615234
11
800.0
21
500.0
31
280.38477
0
LINE
8
0
10
800.0
20
500.0
30
280.38477
11
800.0
21
100.0
31
280.38477
0
LINE
8
0
10
800.0
20
100.0
30
280.38477
11
800.0
21
100.0
31
-119.615234
0
LINE
8
0
10
200.0
20
100.0
30
-119.615234
11
800.0
21
100.0
31
-119.615234
0
LINE
8
0
10
800.0
20
100.0
30
-119.615234
11
800.0
21
100.0
31
280.38477
0
LINE
8
0
10
800.0
20
100.0
30
280.38477
11
200.0
21
100.0
31
280.38477
0
LINE
8
0
10
200.0
20
100.0
30
280.38477
11
200.0
21
100.0
31
-119.615234
0
LINE
8
0
10
200.0
20
500.0
30
-119.615234
11
800.0
21
500.0
31
-119.615234
0
LINE
8
0
10
800.0
20
500.0
30
-119.615234
11
800.0
21
500.0
31
280.38477
0
LINE
8
0
10
800.0
20
500.0
30
280.38477
11
200.0
21
500.0
31
280.38477
0
LINE
8
0
10
200.0
20
500.0
30
280.38477
11
200.0
21
500.0
31
-119.615234
0
LINE
8
0
10
-400.0
20
500.0
30
-519.61523
11
200.0
21
500.0
31
-519.61523
0
LINE
8
0
10
200.0
20
500.0
30
-519.61523
11
200.0
21
900.0
31
-519.61523
0
LINE
8
0
10
200.0
20
900.0
30
-519.61523
11
-400.0
21
900.0
31
-519.61523
0
LINE
8
0
10
-400.0
20
900.0
30
-519.61523
11
-400.0
21
500.0
31
-519.61523
0
LINE
8
0
10
-400.0
20
500.0
30
-119.615234
11
200.0
21
500.0
31
-119.615234
0
LINE
8
0
10
200.0
20
500.0
30
-119.615234
11
200.0
21
900.0
31
-119.615234
0
LINE
8
0
10
200.0
20
900.0
30
-119.615234
11
-400.0
21
900.0
31
-119.615234
0
LINE
8
0
10
-400.0
20
900.0
30
-119.615234
11
-400.0
21
500.0
31
-119.615234
0
LINE
8
0
10
-400.0
20
500.0
30
-519.61523
11
-400.0
21
500.0
31
-119.615234
0
LINE
8
0
10
-400.0
20
500.0
30
-119.615234
11
-400.0
21
900.0
31
-119.615234
0
LINE
8
0
10
-400.0
20
900.0
30
-119.615234
11
-400.0
21
900.0
31
-519.61523
0
LINE
8
0
10
-400.0
20
900.0
30
-519.61523
11
-400.0
21
500.0
31
-519.61523
0
LINE
8
0
10
200.0
20
500.0
30
-519.61523
11
200.0
21
900.0
31
-519.61523
0
LINE
8
0
10
200.0
20
900.0
30
-519.61523
11
200.0
21
900.0
31
-119.615234
0
LINE
8
0
10
200.0
20
900.0
30
-119.615234
11
200.0
21
500.0
31
-119.615234
0
LINE
8
0
10
200.0
20
500.0
30
-119.615234
11
200.0
21
500.0
31
-519.61523
0
LINE
8
0
10
-400.0
20
500.0
30
-519.61523
11
200.0
21
500.0
31
-519.61523
0
LINE
8
0
10
200.0
20
500.0
30
-519.61523
11
200.0
21
500.0
31
-119.615234
0
LINE
8
0
10
200.0
20
500.0
30
-119.615234
11
-400.0
21
500.0
31
-119.615234
0
LINE
8
0
10
-400.0
20
500.0
30
-119.615234
11
-400.0
21
500.0
31
-519.61523
0
LINE
8
0
10
-400.0
20
900.0
30
-519.61523
11
200.0
21
900.0
31
-519.61523
0
LINE
8
0
10
200.0
20
900.0
30
-519.61523
11
200.0
21
900.0
31
-119.615234
0
LINE
8
0
10
200.0
20
900.0
30
-119.615234
11
-400.0
21
900.0
31
-119.615234
0
LINE
8
0
10
-400.0
20
900.0
30
-119.615234
11
-400.0
21
900.0
31
-519.61523
0
LINE
8
0
10
200.0
20
500.0
30
-519.61523
11
800.0
21
500.0
31
-519.61523
0
LINE
8
0
10
800.0
20
500.0
30
-519.61523
11
800.0
21
900.0
31
-519.61523
0
LINE
8
0
10
800.0
20
900.0
30
-519.61523
11
200.0
21
900.0
31
-519.61523
0
LINE
8
0
10
200.0
20
900.0
30
-519.61523
11
200.0
21
500.0
31
-519.61523
0
LINE
8
0
10
200.0
20
500.0
30
-119.615234
11
800.0
21
500.0
31
-119.615234
0
LINE
8
0
10
800.0
20
500.0
30
-119.615234
11
800.0
21
900.0
31
-119.615234
0
LINE
8
0
10
800.0
20
900.0
30
-119.615234
11
200.0
21
900.0
31
-119.615234
0
LINE
8
0
10
200.0
20
900.0
30
-119.615234
11
200.0
21
500.0
31
-119.615234
0
LINE
8
0
10
200.0
20
500.0
30
-519.61523
11
200.0
21
500.0
31
-119.615234
0
LINE
8
0
10
200.0
20
500.0
30
-119.615234
11
200.0
21
900.0
31
-119.615234
0
LINE
8
0
10
200.0
20
900.0
30
-119.615234
11
200.0
21
900.0
31
-519.61523
0
LINE
8
0
10
200.0
20
900.0
30
-519.61523
11
200.0
21
500.0
31
-519.61523
0
LINE
8
0
10
800.0
20
500.0
30
-519.61523
11
800.0
21
900.0
31
-519.61523
0
LINE
8
0
10
800.0
20
900.0
30
-519.61523
11
800.0
21
900.0
31
-119.615234
0
LINE
8
0
10
800.0
20
900.0
30
-119.615234
11
800.0
21
500.0
31
-119.615234
0
LINE
8
0
10
800.0
20
500.0
30
-119.615234
11
800.0
21
500.0
31
-519.61523
0
LINE
8
0
10
200.0
20
500.0
30
-519.61523
11
800.0
21
500.0
31
-519.61523
0
LINE
8
0
10
800.0
20
500.0
30
-519.61523
11
800.0
21
500.0
31
-119.615234
0
LINE
8
0
10
800.0
20
500.0
30
-119.615234
11
200.0
21
500.0
31
-119.615234
0
LINE
8
0
10
200.0
20
500.0
30
-119.615234
11
200.0
21
500.0
31
-519.61523
0
LINE
8
0
10
200.0
20
900.0
30
-519.61523
11
800.0
21
900.0
31
-519.61523
0
LINE
8
0
10
800.0
20
900.0
30
-519.61523
11
800.0
21
900.0
31
-119.615234
0
LINE
8
0
10
800.0
20
900.0
30
-119.615234
11
200.0
21
900.0
31
-119.615234
0
LINE
8
0
10
200.0
20
900.0
30
-119.615234
11
200.0
21
900.0
31
-519.61523
0
LINE
8
0
10
-400.0
20
500.0
30
-119.615234
11
100.0
21
500.0
31
-119.615234
0
LINE
8
0
10
100.0
20
500.0
30
-119.615234
11
100.0
21
900.0
31
-119.615234
0
LINE
8
0
10
100.0
20
900.0
30
-119.615234
11
-400.0
21
900.0
31
-119.615234
0
LINE
8
0
10
-400.0
20
900.0
30
-119.615234
11
-400.0
21
500.0
31
-119.615234
0
LINE
8
0
10
-400.0
20
500.0
30
280.38477
11
100.0
21
500.0
31
280.38477
0
LINE
8
0
10
100.0
20
500.0
30
280.38477
11
100.0
21
900.0
31
280.38477
0
LINE
8
0
10
100.0
20
900.0
30
280.38477
11
-400.0
21
900.0
31
280.38477
0
LINE
8
0
10
-400.0
20
900.0
30
280.38477
11
-400.0
21
500.0
31
280.38477
0
LINE
8
0
10
-400.0
20
500.0
30
-119.615234
11
-400.0
21
500.0
31
280.38477
0
LINE
8
0
10
-400.0
20
500.0
30
280.38477
11
-400.0
21
900.0
31
280.38477
0
LINE
8
0
10
-400.0
20
900.0
30
280.38477
11
-400.0
21
900.0
31
-119.615234
0
LINE
8
0
10
-400.0
20
900.0
30
-119.615234
11
-400.0
21
500.0
31
-119.615234
0
LINE
8
0
10
100.0
20
500.0
30
-119.615234
11
100.0
21
900.0
31
-119.615234
0
LINE
8
0
10
100.0
20
900.0
30
-119.615234
11
100.0
21
900.0
31
280.38477
0
LINE
8
0
10
100.0
20
900.0
30
280.38477
11
100.0
21
500.0
31
280.38477
0
LINE
8
0
10
100.0
20
500.0
30
280.38477
11
100.0
21
500.0
31
-119.615234
0
LINE
8
0
10
-400.0
20
500.0
30
-119.615234
11
100.0
21
500.0
31
-119.615234
0
LINE
8
0
10
100.0
20
500.0
30
-119.615234
11
100.0
21
500.0
31
280.38477
0
LINE
8
0
10
100.0
20
500.0
30
280.38477
11
-400.0
21
500.0
31
280.38477
0
LINE
8
0
10
-400.0
20
500.0
30
280.38477
11
-400.0
21
500.0
31
-119.615234
0
LINE
8
0
10
-400.0
20
900.0
30
-119.615234
11
100.0
21
900.0
31
-119.615234
0
LINE
8
0
10
100.0
20
900.0
30
-119.615234
11
100.0
21
900.0
31
280.38477
0
LINE
8
0
10
100.0
20
900.0
30
280.38477
11
-400.0
21
900.0
31
280.38477
0
LINE
8
0
10
-400.0
20
900.0
30
280.38477
11
-400.0
21
900.0
31
-119.615234
0
LINE
8
0
10
100.0
20
500.0
30
-119.615234
11
600.0
21
500.0
31
-119.615234
0
LINE
8
0
10
600.0
20
500.0
30
-119.615234
11
600.0
21
900.0
31
-119.615234
0
LINE
8
0
10
600.0
20
900.0
30
-119.615234
11
100.0
21
900.0
31
-119.615234
0
LINE
8
0
10
100.0
20
900.0
30
-119.615234
11
100.0
21
500.0
31
-119.615234
0
LINE
8
0
10
100.0
20
500.0
30
280.38477
11
600.0
21
500.0
31
280.38477
0
LINE
8
0
10
600.0
20
500.0
30
280.38477
11
600.0
21
900.0
31
280.38477
0
LINE
8
0
10
600.0
20
900.0
30
280.38477
11
100.0
21
900.0
31
280.38477
0
LINE
8
0
10
100.0
20
900.0
30
280.38477
11
100.0
21
500.0
31
280.38477
0
LINE
8
0
10
100.0
20
500.0
30
-119.615234
11
100.0
21
500.0
31
280.38477
0
LINE
8
0
10
100.0
20
500.0
30
280.38477
11
100.0
21
900.0
31
280.38477
0
LINE
8
0
10
100.0
20
900.0
30
280.38477
11
100.0
21
900.0
31
-119.615234
0
LINE
8
0
10
100.0
20
900.0
30
-119.615234
11
100.0
21
500.0
31
-119.615234
0
LINE
8
0
10
600.0
20
500.0
30
-119.615234
11
600.0
21
900.0
31
-119.615234
0
LINE
8
0
10
600.0
20
900.0
30
-119.615234
11
600.0
21
900.0
31
280.38477
0
LINE
8
0
10
600.0
20
900.0
30
280.38477
11
600.0
21
500.0
31
280.38477
0
LINE
8
0
10
600.0
20
500.0
30
280.38477
11
600.0
21
500.0
31
-119.615234
0
LINE
8
0
10
100.0
20
500.0
30
-119.615234
11
600.0
21
500.0
31
-119.615234
0
LINE
8
0
10
600.0
20
500.0
30
-119.615234
11
600.0
21
500.0
31
280.38477
0
LINE
8
0
10
600.0
20
500.0
30
280.38477
11
100.0
21
500.0
31
280.38477
0
LINE
8
0
10
100.0
20
500.0
30
280.38477
11
100.0
21
500.0
31
-119.615234
0
LINE
8
0
10
100.0
20
900.0
30
-119.615234
11
600.0
21
900.0
31
-119.615234
0
LINE
8
0
10
600.0
20
900.0
30
-119.615234
11
600.0
21
900.0
31
280.38477
0
LINE
8
0
10
600.0
20
900.0
30
280.38477
11
100.0
21
900.0
31
280.38477
0
LINE
8
0
10
100.0
20
900.0
30
280.38477
11
100.0
21
900.0
31
-119.615234
0
LINE
8
0
10
600.0
20
500.0
30
-119.615234
11
800.0
21
500.0
31
-119.615234
0
LINE
8
0
10
800.0
20
500.0
30
-119.615234
11
800.0
21
900.0
31
-119.615234
0
LINE
8
0
10
800.0
20
900.0
30
-119.615234
11
600.0
21
900.0
31
-119.615234
0
LINE
8
0
10
600.0
20
900.0
30
-119.615234
11
600.0
21
500.0
31
-119.615234
0
LINE
8
0
10
600.0
20
500.0
30
60.384766
11
800.0
21
500.0
31
60.384766
0
LINE
8
0
10
800.0
20
500.0
30
60.384766
11
800.0
21
900.0
31
60.384766
0
LINE
8
0
10
800.0
20
900.0
30
60.384766
11
600.0
21
900.0
31
60.384766
0
LINE
8
0
10
600.0
20
900.0
30
60.384766
11
600.0
21
500.0
31
60.384766
0
LINE
8
0
10
600.0
20
500.0
30
-119.615234
11
600.0
21
500.0
31
60.384766
0
LINE
8
0
10
600.0
20
500.0
30
60.384766
11
600.0
21
900.0
31
60.384766
0
LINE
8
0
10
600.0
20
900.0
30
60.384766
11
600.0
21
900.0
31
-119.615234
0
LINE
8
0
10
600.0
20
900.0
30
-119.615234
11
600.0
21
500.0
31
-119.615234
0
LINE
8
0
10
800.0
20
500.0
30
-119.615234
11
800.0
21
900.0
31
-119.615234
0
LINE
8
0
10
800.0
20
900.0
30
-119.615234
11
800.0
21
900.0
31
60.384766
0
LINE
8
0
10
800.0
20
900.0
30
60.384766
11
800.0
21
500.0
31
60.384766
0
LINE
8
0
10
800.0
20
500.0
30
60.384766
11
800.0
21
500.0
31
-119.615234
0
LINE
8
0
10
600.0
20
500.0
30
-119.615234
11
800.0
21
500.0
31
-119.615234
0
LINE
8
0
10
800.0
20
500.0
30
-119.615234
11
800.0
21
500.0
31
60.384766
0
LINE
8
0
10
800.0
20
500.0
30
60.384766
11
600.0
21
500.0
31
60.384766
0
LINE
8
0
10
600.0
20
500.0
30
60.384766
11
600.0
21
500.0
31
-119.615234
0
LINE
8
0
10
600.0
20
900.0
30
-119.615234
11
800.0
21
900.0
31
-119.615234
0
LINE
8
0
10
800.0
20
900.0
30
-119.615234
11
800.0
21
900.0
31
60.384766
0
LINE
8
0
10
800.0
20
900.0
30
60.384766
11
600.0
21
900.0
31
60.384766
0
LINE
8
0
10
600.0
20
900.0
30
60.384766
11
600.0
21
900.0
31
-119.615234
0
LINE
8
0
10
600.0
20
500.0
30
60.384766
11
800.0
21
500.0
31
60.384766
0
LINE
8
0
10
800.0
20
500.0
30
60.384766
11
800.0
21
900.0
31
60.384766
0
LINE
8
0
10
800.0
20
900.0
30
60.384766
11
600.0
21
900.0
31
60.384766
0
LINE
8
0
10
600.0
20
900.0
30
60.384766
11
600.0
21
500.0
31
60.384766
0
LINE
8
0
10
600.0
20
500.0
30
240.38477
11
800.0
21
500.0
31
240.38477
0
LINE
8
0
10
800.0
20
500.0
30
240.38477
11
800.0
21
900.0
31
240.38477
0
LINE
8
0
10
800.0
20
900.0
30
240.38477
11
600.0
21
900.0
31
240.38477
0
LINE
8
0
10
600.0
20
900.0
30
240.38477
11
600.0
21
500.0
31
240.38477
0
LINE
8
0
10
600.0
20
500.0
30
60.384766
11
600.0
21
500.0
31
240.38477
0
LINE
8
0
10
600.0
20
500.0
30
240.38477
11
600.0
21
900.0
31
240.38477
0
LINE
8
0
10
600.0
20
900.0
30
240.38477
11
600.0
21
900.0
31
60.384766
0
LINE
8
0
10
600.0
20
900.0
30
60.384766
11
600.0
21
500.0
31
60.384766
0
LINE
8
0
10
800.0
20
500.0
30
60.384766
11
800.0
21
900.0
31
60.384766
0
LINE
8
0
10
800.0
20
900.0
30
60.384766
11
800.0
21
900.0
31
240.38477
0
LINE
8
0
10
800.0
20
900.0
30
240.38477
11
800.0
21
500.0
31
240.38477
0
LINE
8
0
10
800.0
20
500.0
30
240.38477
11
800.0
21
500.0
31
60.384766
0
LINE
8
0
10
600.0
20
500.0
30
60.384766
11
800.0
21
500.0
31
60.384766
0
LINE
8
0
10
800.0
20
500.0
30
60.384766
11
800.0
21
500.0
31
240.38477
0
LINE
8
0
10
800.0
20
500.0
30
240.38477
11
600.0
21
500.0
31
240.38477
0
LINE
8
0
10
600.0
20
500.0
30
240.38477
11
600.0
21
500.0
31
60.384766
0
LINE
8
0
10
600.0
20
900.0
30
60.384766
11
800.0
21
900.0
31
60.384766
0
LINE
8
0
10
800.0
20
900.0
30
60.384766
11
800.0
21
900.0
31
240.38477
0
LINE
8
0
10
800.0
20
900.0
30
240.38477
11
600.0
21
900.0
31
240.38477
0
LINE
8
0
10
600.0
20
900.0
30
240.38477
11
600.0
21
900.0
31
60.384766
0
LINE
8
0
10
-400.0
20
900.0
30
-519.61523
11
100.0
21
900.0
31
-519.61523
0
LINE
8
0
10
100.0
20
900.0
30
-519.61523
11
100.0
21
1300.0
31
-519.61523
0
LINE
8
0
10
100.0
20
1300.0
30
-519.61523
11
-400.0
21
1300.0
31
-519.61523
0
LINE
8
0
10
-400.0
20
1300.0
30
-519.61523
11
-400.0
21
900.0
31
-519.61523
0
LINE
8
0
10
-400.0
20
900.0
30
-119.615234
11
100.0
21
900.0
31
-119.615234
0
LINE
8
0
10
100.0
20
900.0
30
-119.615234
11
100.0
21
1300.0
31
-119.615234
0
LINE
8
0
10
100.0
20
1300.0
30
-119.615234
11
-400.0
21
1300.0
31
-119.615234
0
LINE
8
0
10
-400.0
20
1300.0
30
-119.615234
11
-400.0
21
900.0
31
-119.615234
0
LINE
8
0
10
-400.0
20
900.0
30
-519.61523
11
-400.0
21
900.0
31
-119.615234
0
LINE
8
0
10
-400.0
20
900.0
30
-119.615234
11
-400.0
21
1300.0
31
-119.615234
0
LINE
8
0
10
-400.0
20
1300.0
30
-119.615234
11
-400.0
21
1300.0
31
-519.61523
0
LINE
8
0
10
-400.0
20
1300.0
30
-519.61523
11
-400.0
21
900.0
31
-519.61523
0
LINE
8
0
10
100.0
20
900.0
30
-519.61523
11
100.0
21
1300.0
31
-519.61523
0
LINE
8
0
10
100.0
20
1300.0
30
-519.61523
11
100.0
21
1300.0
31
-119.615234
0
LINE
8
0
10
100.0
20
1300.0
30
-119.615234
11
100.0
21
900.0
31
-119.615234
0
LINE
8
0
10
100.0
20
900.0
30
-119.615234
11
100.0
21
900.0
31
-519.61523
0
LINE
8
0
10
-400.0
20
900.0
30
-519.61523
11
100.0
21
900.0
31
-519.61523
0
LINE
8
0
10
100.0
20
900.0
30
-519.61523
11
100.0
21
900.0
31
-119.615234
0
LINE
8
0
10
100.0
20
900.0
30
-119.615234
11
-400.0
21
900.0
31
-119.615234
0
LINE
8
0
10
-400.0
20
900.0
30
-119.615234
11
-400.0
21
900.0
31
-519.61523
0
LINE
8
0
10
-400.0
20
1300.0
30
-519.61523
11
100.0
21
1300.0
31
-519.61523
0
LINE
8
0
10
100.0
20
1300.0
30
-519.61523
11
100.0
21
1300.0
31
-119.615234
0
LINE
8
0
10
100.0
20
1300.0
30
-119.615234
11
-400.0
21
1300.0
31
-119.615234
0
LINE
8
0
10
-400.0
20
1300.0
30
-119.615234
11
-400.0
21
1300.0
31
-519.61523
0
LINE
8
0
10
100.0
20
900.0
30
-519.61523
11
600.0
21
900.0
31
-519.61523
0
LINE
8
0
10
600.0
20
900.0
30
-519.61523
11
600.0
21
1300.0
31
-519.61523
0
LINE
8
0
10
600.0
20
1300.0
30
-519.61523
11
100.0
21
1300.0
31
-519.61523
0
LINE
8
0
10
100.0
20
1300.0
30
-519.61523
11
100.0
21
900.0
31
-519.61523
0
LINE
8
0
10
100.0
20
900.0
30
-119.615234
11
600.0
21
900.0
31
-119.615234
0
LINE
8
0
10
600.0
20
900.0
30
-119.615234
11
600.0
21
1300.0
31
-119.615234
0
LINE
8
0
10
600.0
20
1300.0
30
-119.615234
11
100.0
21
1300.0
31
-119.615234
0
LINE
8
0
10
100.0
20
1300.0
30
-119.615234
11
100.0
21
900.0
31
-119.615234
0
LINE
8
0
10
100.0
20
900.0
30
-519.61523
11
100.0
21
900.0
31
-119.615234
0
LINE
8
0
10
100.0
20
900.0
30
-119.615234
11
100.0
21
1300.0
31
-119.615234
0
LINE
8
0
10
100.0
20
1300.0
30
-119.615234
11
100.0
21
1300.0
31
-519.61523
0
LINE
8
0
10
100.0
20
1300.0
30
-519.61523
11
100.0
21
900.0
31
-519.61523
0
LINE
8
0
10
600.0
20
900.0
30
-519.61523
11
600.0
21
1300.0
31
-519.61523
0
LINE
8
0
10
600.0
20
1300.0
30
-519.61523
11
600.0
21
1300.0
31
-119.615234
0
LINE
8
0
10
600.0
20
1300.0
30
-119.615234
11
600.0
21
900.0
31
-119.615234
0
LINE
8
0
10
600.0
20
900.0
30
-119.615234
11
600.0
21
900.0
31
-519.61523
0
LINE
8
0
10
100.0
20
900.0
30
-519.61523
11
600.0
21
900.0
31
-519.61523
0
LINE
8
0
10
600.0
20
900.0
30
-519.61523
11
600.0
21
900.0
31
-119.615234
0
LINE
8
0
10
600.0
20
900.0
30
-119.615234
11
100.0
21
900.0
31
-119.615234
0
LINE
8
0
10
100.0
20
900.0
30
-119.615234
11
100.0
21
900.0
31
-519.61523
0
LINE
8
0
10
100.0
20
1300.0
30
-519.61523
11
600.0
21
1300.0
31
-519.61523
0
LINE
8
0
10
600.0
20
1300.0
30
-519.61523
11
600.0
21
1300.0
31
-119.615234
0
LINE
8
0
10
600.0
20
1300.0
30
-119.615234
11
100.0
21
1300.0
31
-119.615234
0
LINE
8
0
10
100.0
20
1300.0
30
-119.615234
11
100.0
21
1300.0
31
-519.61523
0
LINE
8
0
10
600.0
20
900.0
30
-519.61523
11
800.0
21
900.0
31
-519.61523
0
LINE
8
0
10
800.0
20
900.0
30
-519.61523
11
800.0
21
1300.0
31
-519.61523
0
LINE
8
0
10
800.0
20
1300.0
30
-519.61523
11
600.0
21
1300.0
31
-519.61523
0
LINE
8
0
10
600.0
20
1300.0
30
-519.61523
11
600.0
21
900.0
31
-519.61523
0
LINE
8
0
10
600.0
20
900.0
30
-339.61523
11
800.0
21
900.0
31
-339.61523
0
LINE
8
0
10
800.0
20
900.0
30
-339.61523
11
800.0
21
1300.0
31
-339.61523
0
LINE
8
0
10
800.0
20
1300.0
30
-339.61523
11
600.0
21
1300.0
31
-339.61523
0
LINE
8
0
10
600.0
20
1300.0
30
-339.61523
11
600.0
21
900.0
31
-339.61523
0
LINE
8
0
10
600.0
20
900.0
30
-519.61523
11
600.0
21
900.0
31
-339.61523
0
LINE
8
0
10
600.0
20
900.0
30
-339.61523
11
600.0
21
1300.0
31
-339.61523
0
LINE
8
0
10
600.0
20
1300.0
30
-339.61523
11
600.0
21
1300.0
31
-519.61523
0
LINE
8
0
10
600.0
20
1300.0
30
-519.61523
11
600.0
21
900.0
31
-519.61523
0
LINE
8
0
10
800.0
20
900.0
30
-519.61523
11
800.0
21
1300.0
31
-519.61523
0
LINE
8
0
10
800.0
20
1300.0
30
-519.61523
11
800.0
21
1300.0
31
-339.61523
0
LINE
8
0
10
800.0
20
1300.0
30
-339.61523
11
800.0
21
900.0
31
-339.61523
0
LINE
8
0
10
800.0
20
900.0
30
-339.61523
11
800.0
21
900.0
31
-519.61523
0
LINE
8
0
10
600.0
20
900.0
30
-519.61523
11
800.0
21
900.0
31
-519.61523
0
LINE
8
0
10
800.0
20
900.0
30
-519.61523
11
800.0
21
900.0
31
-339.61523
0
LINE
8
0
10
800.0
20
900.0
30
-339.61523
11
600.0
21
900.0
31
-339.61523
0
LINE
8
0
10
600.0
20
900.0
30
-339.61523
11
600.0
21
900.0
31
-519.61523
0
LINE
8
0
10
600.0
20
1300.0
30
-519.61523
11
800.0
21
1300.0
31
-519.61523
0
LINE
8
0
10
800.0
20
1300.0
30
-519.61523
11
800.0
21
1300.0
31
-339.61523
0
LINE
8
0
10
800.0
20
1300.0
30
-339.61523
11
600.0
21
1300.0
31
-339.61523
0
LINE
8
0
10
600.0
20
1300.0
30
-339.61523
11
600.0
21
1300.0
31
-519.61523
0
LINE
8
0
10
600.0
20
900.0
30
-339.61523
11
800.0
21
900.0
31
-339.61523
0
LINE
8
0
10
800.0
20
900.0
30
-339.61523
11
800.0
21
1300.0
31
-339.61523
0
LINE
8
0
10
800.0
20
1300.0
30
-339.61523
11
600.0
21
1300.0
31
-339.61523
0
LINE
8
0
10
600.0
20
1300.0
30
-339.61523
11
600.0
21
900.0
31
-339.61523
0
LINE
8
0
10
600.0
20
900.0
30
-159.61523
11
800.0
21
900.0
31
-159.61523
0
LINE
8
0
10
800.0
20
900.0
30
-159.61523
11
800.0
21
1300.0
31
-159.61523
0
LINE
8
0
10
800.0
20
1300.0
30
-159.61523
11
600.0
21
1300.0
31
-159.61523
0
LINE
8
0
10
600.0
20
1300.0
30
-159.61523
11
600.0
21
900.0
31
-159.61523
0
LINE
8
0
10
600.0
20
900.0
30
-339.61523
11
600.0
21
900.0
31
-159.61523
0
LINE
8
0
10
600.0
20
900.0
30
-159.61523
11
600.0
21
1300.0
31
-159.61523
0
LINE
8
0
10
600.0
20
1300.0
30
-159.61523
11
600.0
21
1300.0
31
-339.61523
0
LINE
8
0
10
600.0
20
1300.0
30
-339.61523
11
600.0
21
900.0
31
-339.61523
0
LINE
8
0
10
800.0
20
900.0
30
-339.61523
11
800.0
21
1300.0
31
-339.61523
0
LINE
8
0
10
800.0
20
1300.0
30
-339.61523
11
800.0
21
1300.0
31
-159.61523
0
LINE
8
0
10
800.0
20
1300.0
30
-159.61523
11
800.0
21
900.0
31
-159.61523
0
LINE
8
0
10
800.0
20
900.0
30
-159.61523
11
800.0
21
900.0
31
-339.61523
0
LINE
8
0
10
600.0
20
900.0
30
-339.61523
11
800.0
21
900.0
31
-339.61523
0
LINE
8
0
10
800.0
20
900.0
30
-339.61523
11
800.0
21
900.0
31
-159.61523
0
LINE
8
0
10
800.0
20
900.0
30
-159.61523
11
600.0
21
900.0
31
-159.61523
0
LINE
8
0
10
600.0
20
900.0
30
-159.61523
11
600.0
21
900.0
31
-339.61523
0
LINE
8
0
10
600.0
20
1300.0
30
-339.61523
11
800.0
21
1300.0
31
-339.61523
0
LINE
8
0
10
800.0
20
1300.0
30
-339.61523
11
800.0
21
1300.0
31
-159.61523
0
LINE
8
0
10
800.0
20
1300.0
30
-159.61523
11
600.0
21
1300.0
31
-159.61523
0
LINE
8
0
10
600.0
20
1300.0
30
-159.61523
11
600.0
21
1300.0
31
-339.61523
0
LINE
8
0
10
600.0
20
900.0
30
-159.61523
11
800.0
21
900.0
31
-159.61523
0
LINE
8
0
10
800.0
20
900.0
30
-159.61523
11
800.0
21
1300.0
31
-159.61523
0
LINE
8
0
10
800.0
20
1300.0
30
-159.61523
11
600.0
21
1300.0
31
-159.61523
0
LINE
8
0
10
600.0
20
1300.0
30
-159.61523
11
600.0
21
900.0
31
-159.61523
0
LINE
8
0
10
600.0
20
900.0
30
20.384766
11
800.0
21
900.0
31
20.384766
0
LINE
8
0
10
800.0
20
900.0
30
20.384766
11
800.0
21
1300.0
31
20.384766
0
LINE
8
0
10
800.0
20
1300.0
30
20.384766
11
600.0
21
1300.0
31
20.384766
0
LINE
8
0
10
600.0
20
1300.0
30
20.384766
11
600.0
21
900.0
31
20.384766
0
LINE
8
0
10
600.0
20
900.0
30
-159.61523
11
600.0
21
900.0
31
20.384766
0
LINE
8
0
10
600.0
20
900.0
30
20.384766
11
600.0
21
1300.0
31
20.384766
0
LINE
8
0
10
600.0
20
1300.0
30
20.384766
11
600.0
21
1300.0
31
-159.61523
0
LINE
8
0
10
600.0
20
1300.0
30
-159.61523
11
600.0
21
900.0
31
-159.61523
0
LINE
8
0
10
800.0
20
900.0
30
-159.61523
11
800.0
21
1300.0
31
-159.61523
0
LINE
8
0
10
800.0
20
1300.0
30
-159.61523
11
800.0
21
1300.0
31
20.384766
0
LINE
8
0
10
800.0
20
1300.0
30
20.384766
11
800.0
21
900.0
31
20.384766
0
LINE
8
0
10
800.0
20
900.0
30
20.384766
11
800.0
21
900.0
31
-159.61523
0
LINE
8
0
10
600.0
20
900.0
30
-159.61523
11
800.0
21
900.0
31
-159.61523
0
LINE
8
0
10
800.0
20
900.0
30
-159.61523
11
800.0
21
900.0
31
20.384766
0
LINE
8
0
10
800.0
20
900.0
30
20.384766
11
600.0
21
900.0
31
20.384766
0
LINE
8
0
10
600.0
20
900.0
30
20.384766
11
600.0
21
900.0
31
-159.61523
0
LINE
8
0
10
600.0
20
1300.0
30
-159.61523
11
800.0
21
1300.0
31
-159.61523
0
LINE
8
0
10
800.0
20
1300.0
30
-159.61523
11
800.0
21
1300.0
31
20.384766
0
LINE
8
0
10
800.0
20
1300.0
30
20.384766
11
600.0
21
1300.0
31
20.384766
0
LINE
8
0
10
600.0
20
1300.0
30
20.384766
11
600.0
21
1300.0
31
-159.61523
0
LINE
8
0
10
100.0
20
900.0
30
-119.615234
11
600.0
21
900.0
31
-119.615234
0
LINE
8
0
10
600.0
20
900.0
30
-119.615234
11
600.0
21
1300.0
31
-119.615234
0
LINE
8
0
10
600.0
20
1300.0
30
-119.615234
11
100.0
21
1300.0
31
-119.615234
0
LINE
8
0
10
100.0
20
1300.0
30
-119.615234
11
100.0
21
900.0
31
-119.615234
0
LINE
8
0
10
100.0
20
900.0
30
280.38477
11
600.0
21
900.0
31
280.38477
0
LINE
8
0
10
600.0
20
900.0
30
280.38477
11
600.0
21
1300.0
31
280.38477
0
LINE
8
0
10
600.0
20
1300.0
30
280.38477
11
100.0
21
1300.0
31
280.38477
0
LINE
8
0
10
100.0
20
1300.0
30
280.38477
11
100.0
21
900.0
31
280.38477
0
LINE
8
0
10
100.0
20
900.0
30
-119.615234
11
100.0
21
900.0
31
280.38477
0
LINE
8
0
10
100.0
20
900.0
30
280.38477
11
100.0
21
1300.0
31
280.38477
0
LINE
8
0
10
100.0
20
1300.0
30
280.38477
11
100.0
21
1300.0
31
-119.615234
0
LINE
8
0
10
100.0
20
1300.0
30
-119.615234
11
100.0
21
900.0
31
-119.615234
0
LINE
8
0
10
600.0
20
900.0
30
-119.615234
11
600.0
21
1300.0
31
-119.615234
0
LINE
8
0
10
600.0
20
1300.0
30
-119.615234
11
600.0
21
1300.0
31
280.38477
0
LINE
8
0
10
600.0
20
1300.0
30
280.38477
11
600.0
21
900.0
31
280.38477
0
LINE
8
0
10
600.0
20
900.0
30
280.38477
11
600.0
21
900.0
31
-119.615234
0
LINE
8
0
10
100.0
20
900.0
30
-119.615234
11
600.0
21
900.0
31
-119.615234
0
LINE
8
0
10
600.0
20
900.0
30
-119.615234
11
600.0
21
900.0
31
280.38477
0
LINE
8
0
10
600.0
20
900.0
30
280.38477
11
100.0
21
900.0
31
280.38477
0
LINE
8
0
10
100.0
20
900.0
30
280.38477
11
100.0
21
900.0
31
-119.615234
0
LINE
8
0
10
100.0
20
1300.0
30
-119.615234
11
600.0
21
1300.0
31
-119.615234
0
LINE
8
0
10
600.0
20
1300.0
30
-119.615234
11
600.0
21
1300.0
31
280.38477
0
LINE
8
0
10
600.0
20
1300.0
30
280.38477
11
100.0
21
1300.0
31
280.38477
0
LINE
8
0
10
100.0
20
1300.0
30
280.38477
11
100.0
21
1300.0
31
-119.615234
0
LINE
8
0
10
-400.0
20
900.0
30
-119.615234
11
100.0
21
900.0
31
-119.615234
0
LINE
8
0
10
100.0
20
900.0
30
-119.615234
11
100.0
21
1300.0
31
-119.615234
0
LINE
8
0
10
100.0
20
1300.0
30
-119.615234
11
-400.0
21
1300.0
31
-119.615234
0
LINE
8
0
10
-400.0
20
1300.0
30
-119.615234
11
-400.0
21
900.0
31
-119.615234
0
LINE
8
0
10
-400.0
20
900.0
30
280.38477
11
100.0
21
900.0
31
280.38477
0
LINE
8
0
10
100.0
20
900.0
30
280.38477
11
100.0
21
1300.0
31
280.38477
0
LINE
8
0
10
100.0
20
1300.0
30
280.38477
11
-400.0
21
1300.0
31
280.38477
0
LINE
8
0
10
-400.0
20
1300.0
30
280.38477
11
-400.0
21
900.0
31
280.38477
0
LINE
8
0
10
-400.0
20
900.0
30
-119.615234
11
-400.0
21
900.0
31
280.38477
0
LINE
8
0
10
-400.0
20
900.0
30
280.38477
11
-400.0
21
1300.0
31
280.38477
0
LINE
8
0
10
-400.0
20
1300.0
30
280.38477
11
-400.0
21
1300.0
31
-119.615234
0
LINE
8
0
10
-400.0
20
1300.0
30
-119.615234
11
-400.0
21
900.0
31
-119.615234
0
LINE
8
0
10
100.0
20
900.0
30
-119.615234
11
100.0
21
1300.0
31
-119.615234
0
LINE
8
0
10
100.0
20
1300.0
30
-119.615234
11
100.0
21
1300.0
31
280.38477
0
LINE
8
0
10
100.0
20
1300.0
30
280.38477
11
100.0
21
900.0
31
280.38477
0
LINE
8
0
10
100.0
20
900.0
30
280.38477
11
100.0
21
900.0
31
-119.615234
0
LINE
8
0
10
-400.0
20
900.0
30
-119.615234
11
100.0
21
900.0
31
-119.615234
0
LINE
8
0
10
100.0
20
900.0
30
-119.615234
11
100.0
21
900.0
31
280.38477
0
LINE
8
0
10
100.0
20
900.0
30
280.38477
11
-400.0
21
900.0
31
280.38477
0
LINE
8
0
10
-400.0
20
900.0
30
280.38477
11
-400.0
21
900.0
31
-119.615234
0
LINE
8
0
10
-400.0
20
1300.0
30
-119.615234
11
100.0
21
1300.0
31
-119.615234
0
LINE
8
0
10
100.0
20
1300.0
30
-119.615234
11
100.0
21
1300.0
31
280.38477
0
LINE
8
0
10
100.0
20
1300.0
30
280.38477
11
-400.0
21
1300.0
31
280.38477
0
LINE
8
0
10
-400.0
20
1300.0
30
280.38477
11
-400.0
21
1300.0
31
-119.615234
0
LINE
8
0
10
600.0
20
900.0
30
20.384766
11
800.0
21
900.0
31
20.384766
0
LINE
8
0
10
800.0
20
900.0
30
20.384766
11
800.0
21
1300.0
31
20.384766
0
LINE
8
0
10
800.0
20
1300.0
30
20.384766
11
600.0
21
1300.0
31
20.384766
0
LINE
8
0
10
600.0
20
1300.0
30
20.384766
11
600.0
21
900.0
31
20.384766
0
LINE
8
0
10
600.0
20
900.0
30
200.38477
11
800.0
21
900.0
31
200.38477
0
LINE
8
0
10
800.0
20
900.0
30
200.38477
11
800.0
21
1300.0
31
200.38477
0
LINE
8
0
10
800.0
20
1300.0
30
200.38477
11
600.0
21
1300.0
31
200.38477
0
LINE
8
0
10
600.0
20
1300.0
30
200.38477
11
600.0
21
900.0
31
200.38477
0
LINE
8
0
10
600.0
20
900.0
30
20.384766
11
600.0
21
900.0
31
200.38477
0
LINE
8
0
10
600.0
20
900.0
30
200.38477
11
600.0
21
1300.0
31
200.38477
0
LINE
8
0
10
600.0
20
1300.0
30
200.38477
11
600.0
21
1300.0
31
20.384766
0
LINE
8
0
10
600.0
20
1300.0
30
20.384766
11
600.0
21
900.0
31
20.384766
0
LINE
8
0
10
800.0
20
900.0
30
20.384766
11
800.0
21
1300.0
31
20.384766
0
LINE
8
0
10
800.0
20
1300.0
30
20.384766
11
800.0
21
1300.0
31
200.38477
0
LINE
8
0
10
800.0
20
1300.0
30
200.38477
11
800.0
21
900.0
31
200.38477
0
LINE
8
0
10
800.0
20
900.0
30
200.38477
11
800.0
21
900.0
31
20.384766
0
LINE
8
0
10
600.0
20
900.0
30
20.384766
11
800.0
21
900.0
31
20.384766
0
LINE
8
0
10
800.0
20
900.0
30
20.384766
11
800.0
21
900.0
31
200.38477
0
LINE
8
0
10
800.0
20
900.0
30
200.38477
11
600.0
21
900.0
31
200.38477
0
LINE
8
0
10
600.0
20
900.0
30
200.38477
11
600.0
21
900.0
31
20.384766
0
LINE
8
0
10
600.0
20
1300.0
30
20.384766
11
800.0
21
1300.0
31
20.384766
0
LINE
8
0
10
800.0
20
1300.0
30
20.384766
11
800.0
21
1300.0
31
200.38477
0
LINE
8
0
10
800.0
20
1300.0
30
200.38477
11
600.0
21
1300.0
31
200.38477
0
LINE
8
0
10
600.0
20
1300.0
30
200.38477
11
600.0
21
1300.0
31
20.384766
0
LINE
8
0
10
-400.0
20
1300.0
30
-519.61523
11
0.0
21
1300.0
31
-519.61523
0
LINE
8
0
10
0.0
20
1300.0
30
-519.61523
11
0.0
21
1460.0
31
-519.61523
0
LINE
8
0
10
0.0
20
1460.0
30
-519.61523
11
-400.0
21
1460.0
31
-519.61523
0
LINE
8
0
10
-400.0
20
1460.0
30
-519.61523
11
-400.0
21
1300.0
31
-519.61523
0
LINE
8
0
10
-400.0
20
1300.0
30
-199.61523
11
0.0
21
1300.0
31
-199.61523
0
LINE
8
0
10
0.0
20
1300.0
30
-199.61523
11
0.0
21
1460.0
31
-199.61523
0
LINE
8
0
10
0.0
20
1460.0
30
-199.61523
11
-400.0
21
1460.0
31
-199.61523
0
LINE
8
0
10
-400.0
20
1460.0
30
-199.61523
11
-400.0
21
1300.0
31
-199.61523
0
LINE
8
0
10
-400.0
20
1300.0
30
-519.61523
11
-400.0
21
1300.0
31
-199.61523
0
LINE
8
0
10
-400.0
20
1300.0
30
-199.61523
11
-400.0
21
1460.0
31
-199.61523
0
LINE
8
0
10
-400.0
20
1460.0
30
-199.61523
11
-400.0
21
1460.0
31
-519.61523
0
LINE
8
0
10
-400.0
20
1460.0
30
-519.61523
11
-400.0
21
1300.0
31
-519.61523
0
LINE
8
0
10
0.0
20
1300.0
30
-519.61523
11
0.0
21
1460.0
31
-519.61523
0
LINE
8
0
10
0.0
20
1460.0
30
-519.61523
11
0.0
21
1460.0
31
-199.61523
0
LINE
8
0
10
0.0
20
1460.0
30
-199.61523
11
0.0
21
1300.0
31
-199.61523
0
LINE
8
0
10
0.0
20
1300.0
30
-199.61523
11
0.0
21
1300.0
31
-519.61523
0
LINE
8
0
10
-400.0
20
1300.0
30
-519.61523
11
0.0
21
1300.0
31
-519.61523
0
LINE
8
0
10
0.0
20
1300.0
30
-519.61523
11
0.0
21
1300.0
31
-199.61523
0
LINE
8
0
10
0.0
20
1300.0
30
-199.61523
11
-400.0
21
1300.0
31
-199.61523
0
LINE
8
0
10
-400.0
20
1300.0
30
-199.61523
11
-400.0
21
1300.0
31
-519.61523
0
LINE
8
0
10
-400.0
20
1460.0
30
-519.61523
11
0.0
21
1460.0
31
-519.61523
0
LINE
8
0
10
0.0
20
1460.0
30
-519.61523
11
0.0
21
1460.0
31
-199.61523
0
LINE
8
0
10
0.0
20
1460.0
30
-199.61523
11
-400.0
21
1460.0
31
-199.61523
0
LINE
8
0
10
-400.0
20
1460.0
30
-199.61523
11
-400.0
21
1460.0
31
-519.61523
0
LINE
8
0
10
0.0
20
1300.0
30
-519.61523
11
400.0
21
1300.0
31
-519.61523
0
LINE
8
0
10
400.0
20
1300.0
30
-519.61523
11
400.0
21
1460.0
31
-519.61523
0
LINE
8
0
10
400.0
20
1460.0
30
-519.61523
11
0.0
21
1460.0
31
-519.61523
0
LINE
8
0
10
0.0
20
1460.0
30
-519.61523
11
0.0
21
1300.0
31
-519.61523
0
LINE
8
0
10
0.0
20
1300.0
30
-199.61523
11
400.0
21
1300.0
31
-199.61523
0
LINE
8
0
10
400.0
20
1300.0
30
-199.61523
11
400.0
21
1460.0
31
-199.61523
0
LINE
8
0
10
400.0
20
1460.0
30
-199.61523
11
0.0
21
1460.0
31
-199.61523
0
LINE
8
0
10
0.0
20
1460.0
30
-199.61523
11
0.0
21
1300.0
31
-199.61523
0
LINE
8
0
10
0.0
20
1300.0
30
-519.61523
11
0.0
21
1300.0
31
-199.61523
0
LINE
8
0
10
0.0
20
1300.0
30
-199.61523
11
0.0
21
1460.0
31
-199.61523
0
LINE
8
0
10
0.0
20
1460.0
30
-199.61523
11
0.0
21
1460.0
31
-519.61523
0
LINE
8
0
10
0.0
20
1460.0
30
-519.61523
11
0.0
21
1300.0
31
-519.61523
0
LINE
8
0
10
400.0
20
1300.0
30
-519.61523
11
400.0
21
1460.0
31
-519.61523
0
LINE
8
0
10
400.0
20
1460.0
30
-519.61523
11
400.0
21
1460.0
31
-199.61523
0
LINE
8
0
10
400.0
20
1460.0
30
-199.61523
11
400.0
21
1300.0
31
-199.61523
0
LINE
8
0
10
400.0
20
1300.0
30
-199.61523
11
400.0
21
1300.0
31
-519.61523
0
LINE
8
0
10
0.0
20
1300.0
30
-519.61523
11
400.0
21
1300.0
31
-519.61523
0
LINE
8
0
10
400.0
20
1300.0
30
-519.61523
11
400.0
21
1300.0
31
-199.61523
0
LINE
8
0
10
400.0
20
1300.0
30
-199.61523
11
0.0
21
1300.0
31
-199.61523
0
LINE
8
0
10
0.0
20
1300.0
30
-199.61523
11
0.0
21
1300.0
31
-519.61523
0
LINE
8
0
10
0.0
20
1460.0
30
-519.61523
11
400.0
21
1460.0
31
-519.61523
0
LINE
8
0
10
400.0
20
1460.0
30
-519.61523
11
400.0
21
1460.0
31
-199.61523
0
LINE
8
0
10
400.0
20
1460.0
30
-199.61523
11
0.0
21
1460.0
31
-199.61523
0
LINE
8
0
10
0.0
20
1460.0
30
-199.61523
11
0.0
21
1460.0
31
-519.61523
0
LINE
8
0
10
400.0
20
1300.0
30
-519.61523
11
800.0
21
1300.0
31
-519.61523
0
LINE
8
0
10
800.0
20
1300.0
30
-519.61523
11
800.0
21
1460.0
31
-519.61523
0
LINE
8
0
10
800.0
20
1460.0
30
-519.61523
11
400.0
21
1460.0
31
-519.61523
0
LINE
8
0
10
400.0
20
1460.0
30
-519.61523
11
400.0
21
1300.0
31
-519.61523
0
LINE
8
0
10
400.0
20
1300.0
30
-199.61523
11
800.0
21
1300.0
31
-199.61523
0
LINE
8
0
10
800.0
20
1300.0
30
-199.61523
11
800.0
21
1460.0
31
-199.61523
0
LINE
8
0
10
800.0
20
1460.0
30
-199.61523
11
400.0
21
1460.0
31
-199.61523
0
LINE
8
0
10
400.0
20
1460.0
30
-199.61523
11
400.0
21
1300.0
31
-199.61523
0
LINE
8
0
10
400.0
20
1300.0
30
-519.61523
11
400.0
21
1300.0
31
-199.61523
0
LINE
8
0
10
400.0
20
1300.0
30
-199.61523
11
400.0
21
1460.0
31
-199.61523
0
LINE
8
0
10
400.0
20
1460.0
30
-199.61523
11
400.0
21
1460.0
31
-519.61523
0
LINE
8
0
10
400.0
20
1460.0
30
-519.61523
11
400.0
21
1300.0
31
-519.61523
0
LINE
8
0
10
800.0
20
1300.0
30
-519.61523
11
800.0
21
1460.0
31
-519.61523
0
LINE
8
0
10
800.0
20
1460.0
30
-519.61523
11
800.0
21
1460.0
31
-199.61523
0
LINE
8
0
10
800.0
20
1460.0
30
-199.61523
11
800.0
21
1300.0
31
-199.61523
0
LINE
8
0
10
800.0
20
1300.0
30
-199.61523
11
800.0
21
1300.0
31
-519.61523
0
LINE
8
0
10
400.0
20
1300.0
30
-519.61523
11
800.0
21
1300.0
31
-519.61523
0
LINE
8
0
10
800.0
20
1300.0
30
-519.61523
11
800.0
21
1300.0
31
-199.61523
0
LINE
8
0
10
800.0
20
1300.0
30
-199.61523
11
400.0
21
1300.0
31
-199.61523
0
LINE
8
0
10
400.0
20
1300.0
30
-199.61523
11
400.0
21
1300.0
31
-519.61523
0
LINE
8
0
10
400.0
20
1460.0
30
-519.61523
11
800.0
21
1460.0
31
-519.61523
0
LINE
8
0
10
800.0
20
1460.0
30
-519.61523
11
800.0
21
1460.0
31
-199.61523
0
LINE
8
0
10
800.0
20
1460.0
30
-199.61523
11
400.0
21
1460.0
31
-199.61523
0
LINE
8
0
10
400.0
20
1460.0
30
-199.61523
11
400.0
21
1460.0
31
-519.61523
0
LINE
8
0
10
-400.0
20
1300.0
30
-199.61523
11
0.0
21
1300.0
31
-199.61523
0
LINE
8
0
10
0.0
20
1300.0
30
-199.61523
11
0.0
21
1460.0
31
-199.61523
0
LINE
8
0
10
0.0
20
1460.0
30
-199.61523
11
-400.0
21
1460.0
31
-199.61523
0
LINE
8
0
10
-400.0
20
1460.0
30
-199.61523
11
-400.0
21
1300.0
31
-199.61523
0
LINE
8
0
10
-400.0
20
1300.0
30
120.384766
11
0.0
21
1300.0
31
120.384766
0
LINE
8
0
10
0.0
20
1300.0
30
120.384766
11
0.0
21
1460.0
31
120.384766
0
LINE
8
0
10
0.0
20
1460.0
30
120.384766
11
-400.0
21
1460.0
31
120.384766
0
LINE
8
0
10
-400.0
20
1460.0
30
120.384766
11
-400.0
21
1300.0
31
120.384766
0
LINE
8
0
10
-400.0
20
1300.0
30
-199.61523
11
-400.0
21
1300.0
31
120.384766
0
LINE
8
0
10
-400.0
20
1300.0
30
120.384766
11
-400.0
21
1460.0
31
120.384766
0
LINE
8
0
10
-400.0
20
1460.0
30
120.384766
11
-400.0
21
1460.0
31
-199.61523
0
LINE
8
0
10
-400.0
20
1460.0
30
-199.61523
11
-400.0
21
1300.0
31
-199.61523
0
LINE
8
0
10
0.0
20
1300.0
30
-199.61523
11
0.0
21
1460.0
31
-199.61523
0
LINE
8
0
10
0.0
20
1460.0
30
-199.61523
11
0.0
21
1460.0
31
120.384766
0
LINE
8
0
10
0.0
20
1460.0
30
120.384766
11
0.0
21
1300.0
31
120.384766
0
LINE
8
0
10
0.0
20
1300.0
30
120.384766
11
0.0
21
1300.0
31
-199.61523
0
LINE
8
0
10
-400.0
20
1300.0
30
-199.61523
11
0.0
21
1300.0
31
-199.61523
0
LINE
8
0
10
0.0
20
1300.0
30
-199.61523
11
0.0
21
1300.0
31
120.384766
0
LINE
8
0
10
0.0
20
1300.0
30
120.384766
11
-400.0
21
1300.0
31
120.384766
0
LINE
8
0
10
-400.0
20
1300.0
30
120.384766
11
-400.0
21
1300.0
31
-199.61523
0
LINE
8
0
10
-400.0
20
1460.0
30
-199.61523
11
0.0
21
1460.0
31
-199.61523
0
LINE
8
0
10
0.0
20
1460.0
30
-199.61523
11
0.0
21
1460.0
31
120.384766
0
LINE
8
0
10
0.0
20
1460.0
30
120.384766
11
-400.0
21
1460.0
31
120.384766
0
LINE
8
0
10
-400.0
20
1460.0
30
120.384766
11
-400.0
21
1460.0
31
-199.61523
0
LINE
8
0
10
0.0
20
1300.0
30
-199.61523
11
400.0
21
1300.0
31
-199.61523
0
LINE
8
0
10
400.0
20
1300.0
30
-199.61523
11
400.0
21
1460.0
31
-199.61523
0
LINE
8
0
10
400.0
20
1460.0
30
-199.61523
11
0.0
21
1460.0
31
-199.61523
0
LINE
8
0
10
0.0
20
1460.0
30
-199.61523
11
0.0
21
1300.0
31
-199.61523
0
LINE
8
0
10
0.0
20
1300.0
30
120.384766
11
400.0
21
1300.0
31
120.384766
0
LINE
8
0
10
400.0
20
1300.0
30
120.384766
11
400.0
21
1460.0
31
120.384766
0
LINE
8
0
10
400.0
20
1460.0
30
120.384766
11
0.0
21
1460.0
31
120.384766
0
LINE
8
0
10
0.0
20
1460.0
30
120.384766
11
0.0
21
1300.0
31
120.384766
0
LINE
8
0
10
0.0
20
1300.0
30
-199.61523
11
0.0
21
1300.0
31
120.384766
0
LINE
8
0
10
0.0
20
1300.0
30
120.384766
11
0.0
21
1460.0
31
120.384766
0
LINE
8
0
10
0.0
20
1460.0
30
120.384766
11
0.0
21
1460.0
31
-199.61523
0
LINE
8
0
10
0.0
20
1460.0
30
-199.61523
11
0.0
21
1300.0
31
-199.61523
0
LINE
8
0
10
400.0
20
1300.0
30
-199.61523
11
400.0
21
1460.0
31
-199.61523
0
LINE
8
0
10
400.0
20
1460.0
30
-199.61523
11
400.0
21
1460.0
31
120.384766
0
LINE
8
0
10
400.0
20
1460.0
30
120.384766
11
400.0
21
1300.0
31
120.384766
0
LINE
8
0
10
400.0
20
1300.0
30
120.384766
11
400.0
21
1300.0
31
-199.61523
0
LINE
8
0
10
0.0
20
1300.0
30
-199.61523
11
400.0
21
1300.0
31
-199.61523
0
LINE
8
0
10
400.0
20
1300.0
30
-199.61523
11
400.0
21
1300.0
31
120.384766
0
LINE
8
0
10
400.0
20
1300.0
30
120.384766
11
0.0
21
1300.0
31
120.384766
0
LINE
8
0
10
0.0
20
1300.0
30
120.384766
11
0.0
21
1300.0
31
-199.61523
0
LINE
8
0
10
0.0
20
1460.0
30
-199.61523
11
400.0
21
1460.0
31
-199.61523
0
LINE
8
0
10
400.0
20
1460.0
30
-199.61523
11
400.0
21
1460.0
31
120.384766
0
LINE
8
0
10
400.0
20
1460.0
30
120.384766
11
0.0
21
1460.0
31
120.384766
0
LINE
8
0
10
0.0
20
1460.0
30
120.384766
11
0.0
21
1460.0
31
-199.61523
0
LINE
8
0
10
400.0
20
1300.0
30
-199.61523
11
800.0
21
1300.0
31
-199.61523
0
LINE
8
0
10
800.0
20
1300.0
30
-199.61523
11
800.0
21
1460.0
31
-199.61523
0
LINE
8
0
10
800.0
20
1460.0
30
-199.61523
11
400.0
21
1460.0
31
-199.61523
0
LINE
8
0
10
400.0
20
1460.0
30
-199.61523
11
400.0
21
1300.0
31
-199.61523
0
LINE
8
0
10
400.0
20
1300.0
30
120.384766
11
800.0
21
1300.0
31
120.384766
0
LINE
8
0
10
800.0
20
1300.0
30
120.384766
11
800.0
21
1460.0
31
120.384766
0
LINE
8
0
10
800.0
20
1460.0
30
120.384766
11
400.0
21
1460.0
31
120.384766
0
LINE
8
0
10
400.0
20
1460.0
30
120.384766
11
400.0
21
1300.0
31
120.384766
0
LINE
8
0
10
400.0
20
1300.0
30
-199.61523
11
400.0
21
1300.0
31
120.384766
0
LINE
8
0
10
400.0
20
1300.0
30
120.384766
11
400.0
21
1460.0
31
120.384766
0
LINE
8
0
10
400.0
20
1460.0
30
120.384766
11
400.0
21
1460.0
31
-199.61523
0
LINE
8
0
10
400.0
20
1460.0
30
-199.61523
11
400.0
21
1300.0
31
-199.61523
0
LINE
8
0
10
800.0
20
1300.0
30
-199.61523
11
800.0
21
1460.0
31
-199.61523
0
LINE
8
0
10
800.0
20
1460.0
30
-199.61523
11
800.0
21
1460.0
31
120.384766
0
LINE
8
0
10
800.0
20
1460.0
30
120.384766
11
800.0
21
1300.0
31
120.384766
0
LINE
8
0
10
800.0
20
1300.0
30
120.384766
11
800.0
21
1300.0
31
-199.61523
0
LINE
8
0
10
400.0
20
1300.0
30
-199.61523
11
800.0
21
1300.0
31
-199.61523
0
LINE
8
0
10
800.0
20
1300.0
30
-199.61523
11
800.0
21
1300.0
31
120.384766
0
LINE
8
0
10
800.0
20
1300.0
30
120.384766
11
400.0
21
1300.0
31
120.384766
0
LINE
8
0
10
400.0
20
1300.0
30
120.384766
11
400.0
21
1300.0
31
-199.61523
0
LINE
8
0
10
400.0
20
1460.0
30
-199.61523
11
800.0
21
1460.0
31
-199.61523
0
LINE
8
0
10
800.0
20
1460.0
30
-199.61523
11
800.0
21
1460.0
31
120.384766
0
LINE
8
0
10
800.0
20
1460.0
30
120.384766
11
400.0
21
1460.0
31
120.384766
0
LINE
8
0
10
400.0
20
1460.0
30
120.384766
11
400.0
21
1460.0
31
-199.61523
0
ENDSEC
0
EOF
